<?xml version="1.0" encoding="UTF-8" standalone="no"?>
<svg
   xmlns:dc="http://purl.org/dc/elements/1.1/"
   xmlns:cc="http://creativecommons.org/ns#"
   xmlns:rdf="http://www.w3.org/1999/02/22-rdf-syntax-ns#"
   xmlns:svg="http://www.w3.org/2000/svg"
   xmlns="http://www.w3.org/2000/svg"
   xmlns:sodipodi="http://sodipodi.sourceforge.net/DTD/sodipodi-0.dtd"
   xmlns:inkscape="http://www.inkscape.org/namespaces/inkscape"
   viewBox="0 0 96 96"
   version="1.1"
   id="svg8272"
   sodipodi:docname="ppp-disconnected.svg"
   inkscape:version="0.92.2 2405546, 2018-03-11"
   width="96"
   height="96">
  <metadata
     id="metadata8278">
    <rdf:RDF>
      <cc:Work
         rdf:about="">
        <dc:format>image/svg+xml</dc:format>
        <dc:type
           rdf:resource="http://purl.org/dc/dcmitype/StillImage" />
        <dc:title></dc:title>
      </cc:Work>
    </rdf:RDF>
  </metadata>
  <defs
     id="defs8276" />
  <sodipodi:namedview
     pagecolor="#ffffff"
     bordercolor="#666666"
     borderopacity="1"
     objecttolerance="10"
     gridtolerance="10"
     guidetolerance="10"
     inkscape:pageopacity="0"
     inkscape:pageshadow="2"
     inkscape:window-width="926"
     inkscape:window-height="875"
     id="namedview8274"
     showgrid="true"
     inkscape:zoom="4.988111"
     inkscape:cx="44.19194"
     inkscape:cy="47.3125"
     inkscape:window-x="641"
     inkscape:window-y="0"
     inkscape:window-maximized="0"
     inkscape:current-layer="svg8272">
    <inkscape:grid
       type="xygrid"
       id="grid8280" />
  </sodipodi:namedview>
  <g
     id="g4282"
     transform="matrix(0.85041574,0,0,0.85041574,4.0118206,6.6014216)">
    <path
       d="m 6.5,3.368 h 90.451 a 4.5139,4.5139 0 0 1 4.5139,4.5139 v 81.597 A 4.5139,4.5139 0 0 1 96.951,93.9928 H 6.5 A 4.5139,4.5139 0 0 1 1.9861,89.4789 V 7.8819 A 4.5139,4.5139 0 0 1 6.5,3.368"
       id="path8260"
       inkscape:connector-curvature="0"
       style="fill:#ffffff;stroke:#0a0a0a;stroke-width:4;stroke-linecap:square" />
    <path
       d="m 12.58,9.097 h 78.896 c 2.3083,0 4.1667,1.8583 4.1667,4.1667 l 2.8e-4,55.778 h -18.617 v 8.7196 h -8.694 l 4e-5,10.155 h -31.565 l -4e-5,-10.155 h -8.694 v -8.7196 h -19.659 l -3.4e-4,-55.778 c -10e-6,-2.3083 1.8583,-4.1667 4.1667,-4.1667 z"
       id="path8262"
       inkscape:connector-curvature="0"
       style="fill:#dcdcdc;stroke:#0a0a0a;stroke-width:2.5;stroke-linecap:square" />
    <g
       id="g4273">
      <path
         style="fill:#666666;stroke:#191919;stroke-linecap:square"
         d="m 56.16,9.184 h 3.9062 V 31.97 H 56.16 Z"
         id="path8264"
         inkscape:connector-curvature="0" />
      <path
         style="fill:#666666;stroke:#191919;stroke-linecap:square"
         d="m 46.16,9.184 h 3.9062 V 31.97 H 46.16 Z"
         id="path8266"
         inkscape:connector-curvature="0" />
      <path
         style="fill:#666666;stroke:#191919;stroke-linecap:square"
         d="m 66.16,9.184 h 3.9062 V 31.97 H 66.16 Z"
         id="path8264-3"
         inkscape:connector-curvature="0" />
      <path
         style="fill:#666666;stroke:#191919;stroke-linecap:square"
         d="m 36.16,9.184 h 3.9062 V 31.97 H 36.16 Z"
         id="path8264-3-5"
         inkscape:connector-curvature="0" />
    </g>
  </g>
</svg>
