<?xml version="1.0" encoding="UTF-8" standalone="no"?>
<svg
   xmlns:dc="http://purl.org/dc/elements/1.1/"
   xmlns:cc="http://creativecommons.org/ns#"
   xmlns:rdf="http://www.w3.org/1999/02/22-rdf-syntax-ns#"
   xmlns:svg="http://www.w3.org/2000/svg"
   xmlns="http://www.w3.org/2000/svg"
   xmlns:sodipodi="http://sodipodi.sourceforge.net/DTD/sodipodi-0.dtd"
   xmlns:inkscape="http://www.inkscape.org/namespaces/inkscape"
   viewBox="0 0 96 96"
   version="1.1"
   id="svg8421"
   sodipodi:docname="wired-connected.svg"
   inkscape:version="0.92.2 2405546, 2018-03-11"
   width="96"
   height="96">
  <metadata
     id="metadata8427">
    <rdf:RDF>
      <cc:Work
         rdf:about="">
        <dc:format>image/svg+xml</dc:format>
        <dc:type
           rdf:resource="http://purl.org/dc/dcmitype/StillImage" />
        <dc:title></dc:title>
      </cc:Work>
    </rdf:RDF>
  </metadata>
  <defs
     id="defs8425" />
  <sodipodi:namedview
     pagecolor="#ffffff"
     bordercolor="#666666"
     borderopacity="1"
     objecttolerance="10"
     gridtolerance="10"
     guidetolerance="10"
     inkscape:pageopacity="0"
     inkscape:pageshadow="2"
     inkscape:window-width="926"
     inkscape:window-height="875"
     id="namedview8423"
     showgrid="true"
     inkscape:zoom="4.988111"
     inkscape:cx="26.332719"
     inkscape:cy="47.3125"
     inkscape:window-x="641"
     inkscape:window-y="0"
     inkscape:window-maximized="0"
     inkscape:current-layer="svg8421">
    <inkscape:grid
       type="xygrid"
       id="grid8482" />
  </sodipodi:namedview>
  <g
     id="g8652"
     transform="matrix(0.72203059,0,0,0.72203059,4.0073983,13.844054)">
    <path
       d="m 6.504,1.993 h 108.85 a 4.5139,4.5139 0 0 1 4.5139,4.5139 v 81.597 a 4.5139,4.5139 0 0 1 -4.5139,4.5139 H 6.504 A 4.5139,4.5139 0 0 1 1.9901,88.1039 V 6.5069 A 4.5139,4.5139 0 0 1 6.504,1.993"
       id="path8393"
       inkscape:connector-curvature="0"
       style="fill:#ffffff;stroke:#0a0a0a;stroke-width:4;stroke-linecap:square" />
    <path
       d="m 16.052,7.722 h 89.41 c 2.3083,0 4.1667,1.8583 4.1667,4.1667 l 2.8e-4,52.653 h -21.742 v 9.414 h -8.694 l 4e-5,12.586 h -36.871 l -4e-5,-12.586 h -8.694 v -9.414 h -21.742 l -3.4e-4,-52.653 c -1.1e-5,-2.3083 1.8583,-4.1667 4.1667,-4.1667 z"
       id="path8395"
       inkscape:connector-curvature="0"
       style="fill:#dcdcdc;stroke:#0a0a0a;stroke-width:2.5;stroke-linecap:square" />
    <g
       id="g8623">
      <path
         style="fill:#ffff00;stroke:#191919;stroke-linecap:square"
         d="m 22.28211,7.809 h 3.9062 v 22.786 h -3.9062 z"
         id="path8397"
         inkscape:connector-curvature="0" />
      <path
         style="fill:#ffff00;stroke:#191919;stroke-linecap:square"
         d="m 95.32611,7.809 h 3.9062 v 22.786 h -3.9062 z"
         id="path8399"
         inkscape:connector-curvature="0" />
      <path
         style="fill:#ffff00;stroke:#191919;stroke-linecap:square"
         d="m 74.45611,7.809 h 3.9062 v 22.786 h -3.9062 z"
         id="path8401"
         inkscape:connector-curvature="0" />
      <path
         style="fill:#ffff00;stroke:#191919;stroke-linecap:square"
         d="m 64.02611,7.809 h 3.9062 v 22.786 h -3.9062 z"
         id="path8403"
         inkscape:connector-curvature="0" />
      <path
         style="fill:#ffff00;stroke:#191919;stroke-linecap:square"
         d="m 53.58611,7.809 h 3.9062 v 22.786 h -3.9062 z"
         id="path8405"
         inkscape:connector-curvature="0" />
      <path
         style="fill:#ffff00;stroke:#191919;stroke-linecap:square"
         d="m 43.15611,7.809 h 3.9062 v 22.786 h -3.9062 z"
         id="path8407"
         inkscape:connector-curvature="0" />
      <path
         style="fill:#ffff00;stroke:#191919;stroke-linecap:square"
         d="m 32.71711,7.809 h 3.9062 v 22.786 h -3.9062 z"
         id="path8409"
         inkscape:connector-curvature="0" />
      <path
         style="fill:#ffff00;stroke:#191919;stroke-linecap:square"
         d="m 84.89611,7.809 h 3.9062 v 22.786 h -3.9062 z"
         id="path8411"
         inkscape:connector-curvature="0" />
    </g>
    <path
       d="M 11.636,69.092 H 28.737 V 82.981 H 11.636 Z"
       id="path8415"
       inkscape:connector-curvature="0"
       style="fill:#1dfe0a;stroke:#0a0a0a;stroke-width:2;stroke-linecap:square" />
    <path
       d="m 92.774,69.092 h 17.101 V 82.981 H 92.774 Z"
       id="path8417"
       inkscape:connector-curvature="0"
       style="fill:#ffd10a;stroke:#0a0a0a;stroke-width:2;stroke-linecap:square" />
  </g>
</svg>
