<?xml version="1.0" encoding="UTF-8" standalone="no"?>
<svg
   xmlns:dc="http://purl.org/dc/elements/1.1/"
   xmlns:cc="http://creativecommons.org/ns#"
   xmlns:rdf="http://www.w3.org/1999/02/22-rdf-syntax-ns#"
   xmlns:svg="http://www.w3.org/2000/svg"
   xmlns="http://www.w3.org/2000/svg"
   xmlns:sodipodi="http://sodipodi.sourceforge.net/DTD/sodipodi-0.dtd"
   xmlns:inkscape="http://www.inkscape.org/namespaces/inkscape"
   version="1.1"
   x="0px"
   y="0px"
   viewBox="0 0 96 96"
   enable-background="new 0 0 24 24"
   xml:space="preserve"
   id="svg8"
   sodipodi:docname="usb-disconnected.svg"
   inkscape:version="0.92.2 2405546, 2018-03-11"
   width="96"
   height="96"><metadata
     id="metadata14"><rdf:RDF><cc:Work
         rdf:about=""><dc:format>image/svg+xml</dc:format><dc:type
           rdf:resource="http://purl.org/dc/dcmitype/StillImage" /><dc:title></dc:title></cc:Work></rdf:RDF></metadata><defs
     id="defs12" /><sodipodi:namedview
     pagecolor="#ffffff"
     bordercolor="#666666"
     borderopacity="1"
     objecttolerance="10"
     gridtolerance="10"
     guidetolerance="10"
     inkscape:pageopacity="0"
     inkscape:pageshadow="2"
     inkscape:window-width="1538"
     inkscape:window-height="881"
     id="namedview10"
     showgrid="false"
     inkscape:zoom="2.7812867"
     inkscape:cx="5.3321913"
     inkscape:cy="15"
     inkscape:window-x="31"
     inkscape:window-y="0"
     inkscape:window-maximized="1"
     inkscape:current-layer="svg8" /><g
     id="g4506"
     transform="matrix(4.2742647,0,0,4.2742647,-3.4538095,-285.39177)"><path
       style="clip-rule:evenodd;fill-rule:evenodd"
       inkscape:connector-curvature="0"
       id="path2"
       d="m 20.674,77.025 c 0.013,-0.285 -0.035,-0.642 -0.073,-0.937 -0.02,-0.147 -0.037,-0.281 -0.045,-0.378 -0.04,-0.505 -0.084,-0.883 -0.164,-1.135 v 0 c -0.043,-0.134 -0.095,-0.226 -0.161,-0.278 l -2.196,2.752 -0.005,0.005 c 0.014,0.467 0.084,1.311 0.187,2.007 0.062,0.42 0.131,0.777 0.197,0.945 0.237,0.023 0.42,0.011 0.491,-0.096 l 1.055,-1.568 c -0.194,-0.118 -0.409,-0.23 -0.644,-0.334 -0.378,-0.169 -0.547,-0.612 -0.379,-0.989 0.169,-0.377 0.611,-0.547 0.989,-0.378 0.267,0.119 0.516,0.247 0.748,0.384 z m 0.378,0.243 c 0.441,0.308 0.802,0.651 1.078,1.028 0.517,0.705 0.738,1.511 0.652,2.396 -0.414,4.23 -3.782,4.893 -7.977,4.482 -1.693,-0.165 -3.498,-0.505 -5.284,-0.84 -2.498,-0.47 -6.101,-0.819 -8.245,-0.74 v -1.499 c 2.323,-0.079 5.96,0.285 8.521,0.766 1.763,0.332 3.544,0.666 5.148,0.823 3.36,0.328 6.05,-0.115 6.345,-3.133 0.05,-0.508 -0.077,-0.968 -0.371,-1.369 -0.159,-0.218 -0.368,-0.423 -0.625,-0.614 l -1.054,1.569 c -0.252,0.375 -0.734,0.301 -1.302,0.213 -0.126,-0.02 -0.258,-0.04 -0.409,-0.057 l -1.654,-0.188 c -0.147,-0.017 -0.306,0.006 -0.48,0.063 -0.189,0.063 -0.397,0.165 -0.634,0.301 -0.208,0.119 -0.437,0.177 -0.675,0.191 -0.227,0.014 -0.463,-0.012 -0.701,-0.061 v 0 L 7.884,79.523 C 7.656,79.479 7.458,79.438 7.296,79.365 7.098,79.275 6.962,79.145 6.907,78.93 L 6.595,77.707 2.004,76.762 1.987,76.76 1.97,76.755 C 1.74,76.681 1.566,76.547 1.449,76.355 1.338,76.173 1.281,75.942 1.279,75.663 L 1.277,75.661 1.278,74.637 v -0.075 l 0.051,-0.058 3.269,-3.7 0.073,-0.083 0.109,0.017 4.884,1.002 0.61,-0.7 0.013,-0.015 0.01,-0.008 c 0.165,-0.136 0.353,-0.224 0.561,-0.262 0.202,-0.037 0.42,-0.025 0.653,0.034 v 0 l 5.43,1.236 c 0.382,0.087 0.551,0.433 0.733,0.814 h 0.001 l 0.063,0.129 v 0 c 0.075,0.151 0.185,0.277 0.315,0.373 0.138,0.1 0.303,0.169 0.48,0.203 l 1.669,0.31 c 0.287,0.054 0.463,0.25 0.574,0.598 v 0 c 0.094,0.291 0.142,0.696 0.184,1.227 0.008,0.107 0.024,0.227 0.041,0.357 0.052,0.382 0.114,0.857 0.051,1.232 z M 5.494,72.804 6.55,73.026 7.401,72.063 6.345,71.841 Z M 3.793,74.729 4.85,74.951 5.701,73.988 4.645,73.765 Z m 9.826,2.711 0.464,2.815 c 0.17,-0.012 0.332,-0.055 0.477,-0.138 0.26,-0.148 0.491,-0.262 0.709,-0.334 0.094,-0.03 0.185,-0.054 0.273,-0.069 l -0.451,-2.888 c -0.346,0.081 -0.745,0.261 -1.199,0.54 l -0.021,0.013 -0.028,0.008 c -0.073,0.022 -0.148,0.039 -0.224,0.053 z m 0.154,2.81 -0.457,-2.776 c -0.051,0.002 -0.103,0.002 -0.153,10e-4 C 12.93,77.47 12.689,77.432 12.442,77.362 L 6.615,76.135 6.616,76.149 7.3,78.832 c 0.019,0.075 0.077,0.126 0.162,0.164 0.121,0.055 0.296,0.09 0.499,0.13 l 0.931,0.183 -0.681,-2.242 0.147,-0.045 0.705,2.32 0.22,0.043 -0.681,-2.241 0.147,-0.045 0.704,2.319 0.228,0.045 L 9,77.222 l 0.147,-0.045 0.704,2.319 0.256,0.05 -0.68,-2.241 0.147,-0.044 0.705,2.319 0.24,0.046 -0.68,-2.24 0.147,-0.044 0.704,2.319 2.771,0.542 0.002,10e-4 c 0.106,0.02 0.21,0.036 0.31,0.046 z m 1.618,-3.471 c 0.124,-0.009 0.239,-0.002 0.346,0.02 l 0.01,0.002 1.98,0.305 c 0.018,0.487 0.088,1.317 0.188,2 0.049,0.332 0.107,0.634 0.174,0.857 L 18.003,79.949 C 17.859,79.928 17.71,79.904 17.577,79.888 H 17.576 L 15.921,79.7 15.848,79.694 Z m 0.018,-3.218 c -0.108,0 -0.195,0.087 -0.195,0.195 0,0.108 0.087,0.195 0.195,0.195 0.107,0 0.195,-0.087 0.195,-0.195 0,-0.108 -0.087,-0.195 -0.195,-0.195 z m -1.278,1.614 c -0.107,0 -0.195,0.087 -0.195,0.195 0,0.108 0.088,0.195 0.195,0.195 0.108,0 0.195,-0.087 0.195,-0.195 0,-0.107 -0.087,-0.195 -0.195,-0.195 z M 13.032,74.46 c -0.007,0.083 0.042,0.154 0.13,0.176 0.118,0.03 0.263,-0.04 0.323,-0.154 0.061,-0.114 0.014,-0.231 -0.104,-0.261 -0.087,-0.022 -0.19,0.01 -0.262,0.076 l -0.386,-0.098 0.057,-0.629 0.005,-0.045 -0.045,-0.011 -0.946,-0.24 0.103,-0.194 -0.539,-0.137 -0.274,0.52 0.538,0.137 0.103,-0.194 0.901,0.229 -0.048,0.529 -2.039,-0.516 0.141,-0.268 -0.804,0.191 0.437,0.505 0.141,-0.266 2.033,0.515 -0.444,0.415 -0.909,-0.23 c 0.03,-0.12 -0.032,-0.23 -0.158,-0.262 -0.149,-0.037 -0.331,0.049 -0.407,0.193 -0.077,0.146 -0.017,0.293 0.132,0.331 0.125,0.032 0.274,-0.024 0.364,-0.13 l 0.954,0.241 0.045,0.012 0.039,-0.037 0.53,-0.495 z m -0.194,1.63 0.094,0.021 0.06,-0.076 2.318,-2.938 0.149,-0.189 -0.235,-0.053 -4.498,-1.004 -0.088,-0.02 -0.06,0.069 -2.463,2.856 -0.164,0.19 0.244,0.058 z M 8.509,74.765 12.814,75.771 14.921,73.1 10.749,72.168 Z M 19.797,74.19 17.79,76.705 15.807,76.4 v 0 c -0.559,-0.111 -1.261,0.091 -2.104,0.605 -0.17,0.047 -0.348,0.069 -0.531,0.065 -0.196,-0.004 -0.403,-0.038 -0.621,-0.1 L 12.537,76.967 6.711,75.74 c 0.875,-0.987 1.726,-1.967 2.576,-2.947 0.434,-0.5 0.869,-1.001 1.278,-1.47 0.11,-0.088 0.232,-0.145 0.364,-0.169 0.143,-0.026 0.304,-0.017 0.483,0.029 l 0.004,10e-4 5.435,1.238 c 0.191,0.043 0.318,0.306 0.458,0.595 v 0.001 l 0.063,0.129 0.001,10e-4 c 0.104,0.212 0.257,0.388 0.441,0.522 0.188,0.137 0.408,0.23 0.646,0.273 z M 6.527,73.545 C 6.333,73.794 6.337,74.12 6.536,74.273 6.733,74.427 7.05,74.35 7.243,74.101 7.436,73.852 7.432,73.526 7.234,73.372 7.037,73.219 6.72,73.296 6.527,73.545 Z M 1.854,74.521 6.4,75.479 v 0 C 7.257,74.512 8.12,73.52 8.98,72.527 L 9.35,72.102 4.828,71.155 Z m 4.389,1.235 -4.559,-0.96 v 0.866 H 1.683 c 0.002,0.203 0.04,0.364 0.112,0.482 0.063,0.103 0.158,0.177 0.283,0.221 L 6.487,77.283 6.221,76.242 6.22,76.234 6.217,76.22 C 6.194,76.061 6.2,75.922 6.23,75.803 Z" /><path
       inkscape:connector-curvature="0"
       id="path16"
       d="M 12.641949,76.979259 C 12.458422,76.938842 11.060416,76.642443 9.5352698,76.320595 8.0101237,75.998746 6.7659499,75.72484 6.7704393,75.711914 c 0.00449,-0.01293 0.3253944,-0.385041 0.7131224,-0.826924 0.387728,-0.441882 1.2457789,-1.425509 1.9067797,-2.185838 1.3420936,-1.543768 1.3372696,-1.539431 1.7077176,-1.53506 0.130492,0.0015 1.080857,0.204956 2.926305,0.626348 1.503178,0.343237 2.780467,0.639478 2.83842,0.658314 0.131292,0.04267 0.248934,0.200655 0.45712,0.613871 0.188703,0.374548 0.399268,0.598855 0.70213,0.747954 0.1584,0.07798 0.363691,0.130163 0.942724,0.23963 0.407125,0.07697 0.752348,0.144112 0.767162,0.14921 0.01481,0.0051 -0.417531,0.56772 -0.960767,1.250273 l -0.987702,1.241006 -1.128226,-0.174429 c -1.085016,-0.167748 -1.138743,-0.173071 -1.402848,-0.138978 -0.371715,0.04798 -0.700089,0.163684 -1.220037,0.429872 l -0.436939,0.223692 -0.309883,0.01094 c -0.237732,0.0084 -0.387575,-0.0062 -0.643569,-0.06254 z m 1.567202,-2.457299 c 0.695913,-0.88376 1.259673,-1.612458 1.2528,-1.619331 -0.0069,-0.0069 -1.096138,-0.254494 -2.42059,-0.55027 l -2.408094,-0.537774 -0.08818,0.100653 c -0.0485,0.05536 -0.6554912,0.758336 -1.3488663,1.562172 -1.0516505,1.219187 -1.2512102,1.465552 -1.2035555,1.48584 0.047537,0.02024 4.8865218,1.162239 4.9353048,1.164733 0.0087,4.48e-4 0.585273,-0.722264 1.281185,-1.606023 z m 0.0774,0.98041 c 0.04398,-0.05594 0.052,-0.192341 0.01476,-0.250912 -0.03911,-0.0615 -0.175586,-0.0994 -0.253362,-0.07036 -0.03947,0.01474 -0.08824,0.06296 -0.108385,0.107173 -0.09572,0.21009 0.204517,0.395348 0.346991,0.214103 z m 1.267729,-1.613079 c 0.135034,-0.135034 0.04526,-0.332088 -0.1513,-0.332088 -0.117113,0 -0.186874,0.07729 -0.186874,0.207036 0,0.07471 0.02139,0.122138 0.07063,0.156628 0.10034,0.07028 0.174432,0.06154 0.267544,-0.03158 z"
       style="opacity:1;fill:#e6e6e6;fill-opacity:1;stroke:none;stroke-width:0.00635593;stroke-linejoin:round;stroke-miterlimit:4;stroke-dasharray:none;stroke-opacity:1" /><path
       inkscape:connector-curvature="0"
       id="path18"
       d="M 10.6875,75.260773 C 9.5513771,74.99407 8.6044989,74.769801 8.5833262,74.762399 c -0.027531,-0.0096 1.8813238,-2.273591 2.1504868,-2.550551 0.02616,-0.02691 4.063023,0.857755 4.111411,0.901006 0.02974,0.02658 -2.010838,2.635144 -2.060266,2.633739 -0.01748,-4.96e-4 -0.961335,-0.219116 -2.097458,-0.48582 z m 1.653395,-0.593529 c 0.121883,-0.123588 0.245646,-0.23797 0.275029,-0.254183 0.03396,-0.01874 0.113244,-0.01567 0.21765,0.0084 0.123334,0.02847 0.171216,0.05629 0.192298,0.111745 0.05976,0.157189 0.295643,0.158807 0.426807,0.0029 0.09567,-0.113698 0.100195,-0.195153 0.01554,-0.279807 -0.07291,-0.07291 -0.173226,-0.07979 -0.282237,-0.01936 -0.106084,0.05881 -0.458032,-0.02511 -0.435911,-0.103933 0.0079,-0.02832 0.02389,-0.180609 0.03543,-0.338418 l 0.02098,-0.286924 -0.448489,-0.108914 c -0.246669,-0.0599 -0.463181,-0.117993 -0.481138,-0.129091 -0.0219,-0.01354 -0.01996,-0.04804 0.0059,-0.104826 0.02121,-0.04656 0.03267,-0.08958 0.02546,-0.09561 -0.0167,-0.01398 -0.550047,-0.146036 -0.556812,-0.13787 -0.02473,0.02985 -0.268321,0.53891 -0.260739,0.544895 0.0055,0.0043 0.110059,0.03207 0.23241,0.06165 0.122352,0.02959 0.245598,0.06069 0.273881,0.06911 0.03481,0.01037 0.06429,-0.01574 0.09125,-0.08083 0.0219,-0.05288 0.04882,-0.09577 0.05981,-0.09531 0.01099,4.63e-4 0.20589,0.04812 0.433115,0.105907 l 0.413136,0.105064 -0.0066,0.23177 c -0.0037,0.127474 -0.01427,0.239397 -0.02359,0.248718 -0.01498,0.01498 -1.95429,-0.462192 -1.983463,-0.488033 -0.0064,-0.0056 0.02029,-0.06181 0.05924,-0.12482 0.03895,-0.06301 0.06424,-0.121143 0.05621,-0.129175 -0.01578,-0.01578 -0.7823313,0.161444 -0.8076065,0.186719 -0.020478,0.02048 0.3979115,0.4986 0.4363095,0.4986 0.01656,0 0.05397,-0.05005 0.08314,-0.111229 0.02917,-0.06118 0.06827,-0.111368 0.08688,-0.111539 0.01861,-1.72e-4 0.467165,0.109513 0.996785,0.243742 l 0.962947,0.244053 -0.18335,0.185283 c -0.105867,0.106959 -0.210661,0.184926 -0.247927,0.184439 -0.0355,-4.63e-4 -0.243314,-0.04694 -0.461799,-0.103284 -0.368744,-0.09509 -0.397835,-0.108141 -0.40546,-0.18189 -0.03382,-0.327085 -0.612695,-0.192423 -0.611003,0.142135 5.77e-4,0.113992 0.02337,0.153612 0.116598,0.202684 0.101149,0.05324 0.192789,0.04506 0.324522,-0.02898 l 0.116575,-0.06552 0.428007,0.110295 c 0.235403,0.06066 0.464142,0.111597 0.508308,0.113188 0.05938,0.0021 0.138027,-0.05564 0.301907,-0.221813 z"
       style="opacity:1;fill:#e6e6e6;fill-opacity:1;stroke:none;stroke-width:0.00635593;stroke-linejoin:round;stroke-miterlimit:4;stroke-dasharray:none;stroke-opacity:1" /><path
       inkscape:connector-curvature="0"
       id="path20"
       d="m 13.579449,80.209207 c -0.03496,-0.0079 -0.692796,-0.136353 -1.461864,-0.285463 -0.769068,-0.14911 -1.40322,-0.275807 -1.409228,-0.281548 -0.006,-0.0057 -0.165836,-0.520491 -0.355176,-1.143888 -0.18934,-0.623397 -0.351794,-1.140989 -0.3610092,-1.150204 -0.00921,-0.0092 -0.052401,-0.0078 -0.095969,0.0031 -0.070271,0.01764 -0.075968,0.02973 -0.050461,0.1071 0.1524178,0.462331 0.6364802,2.114531 0.6233602,2.127651 -0.0093,0.0093 -0.05297,0.008 -0.09694,-0.0031 -0.08847,-0.02221 -0.05697,0.06668 -0.5410622,-1.526581 -0.1323838,-0.435706 -0.2447407,-0.796235 -0.2496821,-0.801177 -0.026896,-0.0269 -0.1492171,0.03489 -0.1492171,0.07537 0,0.02623 0.1430085,0.516967 0.3177966,1.090536 0.1747881,0.57357 0.3177968,1.056319 0.3177968,1.072775 0,0.01688 -0.04484,0.02075 -0.1028713,0.0089 l -0.1028683,-0.021 -0.3486011,-1.150794 C 9.1599,77.163737 9.1457052,77.130914 9.0270834,77.206238 c -0.029967,0.01903 0.036807,0.277052 0.2733307,1.056187 0.1721415,0.567054 0.3232323,1.063184 0.3357573,1.102511 0.017946,0.05635 0.010533,0.0714 -0.034983,0.07102 C 9.5694224,79.4357 9.524425,79.423418 9.501194,79.40869 9.477963,79.393963 9.3033942,78.870434 9.1132633,78.245293 8.9231324,77.620152 8.7627545,77.103856 8.7568679,77.09797 c -0.029901,-0.0299 -0.1507764,0.03296 -0.1497527,0.07788 6.505e-4,0.02855 0.148628,0.534287 0.3288387,1.123861 0.3271979,1.070454 0.3275405,1.071925 0.2451094,1.05257 -0.0454,-0.01066 -0.090954,-0.02826 -0.1012301,-0.03911 C 9.0695571,79.302311 8.9062671,78.782177 8.7169665,78.157309 8.367441,77.003551 8.3531741,76.970708 8.2343376,77.046261 c -0.027618,0.01756 0.052154,0.320796 0.2938926,1.117167 0.1824904,0.601187 0.325732,1.099135 0.3183147,1.106553 -0.02412,0.02412 -1.2926998,-0.24678 -1.3891215,-0.296642 -0.051509,-0.02664 -0.107591,-0.07992 -0.1246256,-0.118406 -0.040465,-0.09142 -0.6969354,-2.67088 -0.6832266,-2.684589 0.00889,-0.0089 5.0776498,1.050036 5.8932708,1.23118 0.150642,0.03346 0.384727,0.0708 0.520188,0.08298 0.13546,0.01218 0.246292,0.02562 0.246292,0.02987 0,0.01937 0.416105,2.551724 0.432013,2.629164 0.01879,0.09145 -0.005,0.101096 -0.161886,0.06567 z"
       style="opacity:1;fill:#e6e6e6;fill-opacity:1;stroke:none;stroke-width:0.00635593;stroke-linejoin:round;stroke-miterlimit:4;stroke-dasharray:none;stroke-opacity:1" /><path
       inkscape:connector-curvature="0"
       id="path22"
       d="m 14.090303,80.195274 c -0.01102,-0.03297 -0.407108,-2.451053 -0.441168,-2.693294 -0.0036,-0.02574 0.04639,-0.05932 0.122181,-0.08205 0.07057,-0.02116 0.230664,-0.09826 0.355768,-0.17132 0.259308,-0.151444 0.442355,-0.234877 0.743709,-0.338983 l 0.210836,-0.07283 0.02057,0.14781 c 0.01131,0.0813 0.110784,0.724745 0.221051,1.429889 0.133864,0.85605 0.188974,1.285379 0.165844,1.29201 -0.274534,0.0787 -0.445404,0.146815 -0.766008,0.30538 -0.405718,0.200659 -0.607463,0.259129 -0.632778,0.183389 z"
       style="opacity:1;fill:#e6e6e6;fill-opacity:1;stroke:none;stroke-width:0.00635593;stroke-linejoin:round;stroke-miterlimit:4;stroke-dasharray:none;stroke-opacity:1" /><path
       inkscape:connector-curvature="0"
       id="path24"
       d="m 17.978284,79.931972 c -0.0073,-0.0071 -0.48517,-0.06659 -1.06197,-0.132159 -0.576801,-0.06557 -1.050781,-0.120523 -1.053289,-0.12212 -0.0025,-0.0016 -0.10008,-0.617841 -0.216827,-1.36943 -0.116746,-0.751589 -0.219926,-1.398703 -0.229287,-1.43803 -0.01528,-0.06417 -0.0052,-0.0715 0.09856,-0.0715 0.06357,0 0.579541,0.0715 1.146609,0.158898 0.567068,0.08739 1.03859,0.158898 1.047826,0.158898 0.0092,0 0.01679,0.08313 0.01679,0.184723 0,0.462225 0.176291,1.953027 0.284816,2.408536 0.04107,0.172377 0.04588,0.235131 0.01802,0.235131 -0.0209,0 -0.04396,-0.0058 -0.05124,-0.01294 z"
       style="opacity:1;fill:#e6e6e6;fill-opacity:1;stroke:none;stroke-width:0.00635593;stroke-linejoin:round;stroke-miterlimit:4;stroke-dasharray:none;stroke-opacity:1" /><path
       inkscape:connector-curvature="0"
       id="path26"
       d="m 18.413589,79.958807 c -0.113476,-0.295712 -0.282944,-1.533146 -0.354436,-2.588044 l -0.02046,-0.301907 1.09652,-1.373129 c 0.781863,-0.979097 1.105296,-1.362114 1.127105,-1.334746 0.123155,0.154553 0.201632,0.499079 0.2621,1.150671 0.01947,0.209746 0.05578,0.537757 0.0807,0.728912 0.02492,0.191156 0.04531,0.436215 0.04531,0.544577 v 0.197021 l -0.383655,-0.193641 c -0.322566,-0.162807 -0.415681,-0.19568 -0.58478,-0.206447 -0.250263,-0.01594 -0.401494,0.03235 -0.56611,0.180766 -0.167488,0.151 -0.243544,0.323181 -0.244418,0.553329 -0.0014,0.377051 0.13997,0.549097 0.676654,0.823288 0.275376,0.14069 0.370649,0.204312 0.357452,0.238704 -0.0099,0.02579 -0.248539,0.388074 -0.530317,0.805078 -0.547095,0.809648 -0.562652,0.825236 -0.823626,0.825236 -0.07857,0 -0.12545,-0.01687 -0.138035,-0.04967 z"
       style="opacity:1;fill:#ececec;fill-opacity:1;stroke:none;stroke-width:0.00635593;stroke-linejoin:round;stroke-miterlimit:4;stroke-dasharray:none;stroke-opacity:1" /><path
       inkscape:connector-curvature="0"
       id="path30"
       d="M 4.1336444,74.989903 C 2.9236213,74.732879 1.9265823,74.515565 1.9180023,74.506985 c -0.012271,-0.01227 2.6483804,-3.05134 2.8698118,-3.277977 0.052114,-0.05334 0.1584134,-0.03425 2.278023,0.409102 1.2228467,0.255779 2.2284194,0.469545 2.2346059,0.475037 0.00619,0.0055 -0.4224445,0.507836 -0.9525127,1.116321 -1.5966219,1.832822 -1.9396516,2.218414 -1.9777932,2.223189 -0.020048,0.0025 -1.0264697,-0.205729 -2.2364927,-0.462754 z M 5.299705,74.467145 c 0.2295829,-0.259861 0.4124593,-0.477438 0.4063919,-0.483506 -0.00607,-0.0061 -0.2177126,-0.05445 -0.4703228,-0.10752 -0.25261,-0.05307 -0.4903899,-0.103634 -0.5283996,-0.112367 -0.057,-0.0131 -0.1414739,0.06625 -0.4821291,0.452875 -0.2271613,0.257815 -0.4148186,0.482694 -0.4170164,0.499732 -0.00434,0.03365 0.8927629,0.23781 1.0052633,0.22878 0.045182,-0.0036 0.2120378,-0.167661 0.4862127,-0.477994 z M 7.0862911,74.25952 c 0.2817896,-0.178706 0.3954553,-0.595104 0.2252355,-0.825121 -0.2691785,-0.363739 -0.9301707,-0.01654 -0.9301707,0.488583 0,0.281409 0.1367838,0.428713 0.3980953,0.428713 0.123613,0 0.1955885,-0.02162 0.3068399,-0.09218 z M 6.9824816,72.562143 c 0.2287029,-0.258883 0.4158235,-0.481093 0.4158235,-0.493801 0,-0.02122 -0.9528251,-0.230651 -1.0385667,-0.228278 -0.034007,9.41e-4 -0.8399043,0.891374 -0.8614522,0.951816 -0.00502,0.01408 0.1451377,0.05773 0.3336865,0.097 0.1885484,0.03927 0.4214701,0.09004 0.5176036,0.11283 0.096133,0.02279 0.1843042,0.03912 0.1959349,0.03628 0.011631,-0.0028 0.2082674,-0.216967 0.4369704,-0.47585 z"
       style="opacity:1;fill:#f9f9f9;fill-opacity:1;stroke:none;stroke-width:0.00635593;stroke-linejoin:round;stroke-miterlimit:4;stroke-dasharray:none;stroke-opacity:1" /><path
       inkscape:connector-curvature="0"
       id="path32"
       d="M 4.2071242,76.796802 C 3.0549938,76.554998 2.0715209,76.34025 2.021629,76.319585 1.9017275,76.26992 1.7835433,76.125672 1.7429239,75.979416 c -0.018053,-0.065 -0.032903,-0.352243 -0.033001,-0.638312 l -1.772e-4,-0.520124 0.087394,0.01653 c 0.048067,0.0091 1.0612868,0.221343 2.2516001,0.471674 l 2.1642061,0.455147 -0.013879,0.207349 c -0.011394,0.170222 0.00935,0.295546 0.1158266,0.699933 0.071338,0.270922 0.1297764,0.510461 0.1298632,0.532309 9.53e-5,0.02185 -0.032019,0.0381 -0.071346,0.03613 -0.039327,-0.002 -1.0141563,-0.201439 -2.1662868,-0.443243 z"
       style="opacity:1;fill:#f9f9f9;fill-opacity:1;stroke:none;stroke-width:0.00635593;stroke-linejoin:round;stroke-miterlimit:4;stroke-dasharray:none;stroke-opacity:1" /></g></svg>