<?xml version="1.0" encoding="UTF-8" standalone="no"?>
<svg
   xmlns:dc="http://purl.org/dc/elements/1.1/"
   xmlns:cc="http://creativecommons.org/ns#"
   xmlns:rdf="http://www.w3.org/1999/02/22-rdf-syntax-ns#"
   xmlns:svg="http://www.w3.org/2000/svg"
   xmlns="http://www.w3.org/2000/svg"
   xmlns:sodipodi="http://sodipodi.sourceforge.net/DTD/sodipodi-0.dtd"
   xmlns:inkscape="http://www.inkscape.org/namespaces/inkscape"
   version="1.1"
   x="0px"
   y="0px"
   viewBox="0 0 96 96"
   enable-background="new 0 0 512 512"
   xml:space="preserve"
   id="svg84"
   sodipodi:docname="wireless-connected.svg"
   inkscape:version="0.92.2 2405546, 2018-03-11"
   width="96"
   height="96"><metadata
     id="metadata90"><rdf:RDF><cc:Work
         rdf:about=""><dc:format>image/svg+xml</dc:format><dc:type
           rdf:resource="http://purl.org/dc/dcmitype/StillImage" /><dc:title></dc:title></cc:Work></rdf:RDF></metadata><defs
     id="defs88" /><sodipodi:namedview
     pagecolor="#ffffff"
     bordercolor="#666666"
     borderopacity="1"
     objecttolerance="10"
     gridtolerance="10"
     guidetolerance="10"
     inkscape:pageopacity="0"
     inkscape:pageshadow="2"
     inkscape:window-width="1538"
     inkscape:window-height="881"
     id="namedview86"
     showgrid="false"
     inkscape:zoom="4.3375"
     inkscape:cx="76.172911"
     inkscape:cy="40.271896"
     inkscape:window-x="31"
     inkscape:window-y="0"
     inkscape:window-maximized="1"
     inkscape:current-layer="svg84" /><g
     id="g4759"
     transform="matrix(0.1756487,0,0,0.1756487,3.0339102,98.58683)"><path
       inkscape:connector-curvature="0"
       id="path78"
       d="m 336,-69.5 v 32 H 176 v -32 c 0,-17.688 14.313,-32 32,-32 h 32 v -210.937 c -18.625,-6.625 -32,-24.188 -32,-45.063 0,-26.5 21.5,-48 48,-48 26.5,0 48,21.5 48,48 0,20.875 -13.438,38.438 -32,45.063 V -101.5 h 32 c 17.688,0 32,14.313 32,32 z m -159.187,-208.812 11.25,11.312 22.688,-22.625 -11.313,-11.313 c -31.188,-31.188 -31.188,-81.938 0,-113.125 l 11.313,-11.313 -22.626,-22.624 -11.313,11.313 c -43.687,43.625 -43.687,114.687 10e-4,158.375 z m -22.625,-181 11.312,-11.313 -22.625,-22.625 -11.313,11.313 c -68.625,68.625 -68.625,180.25 0,248.875 l 11.313,11.313 22.625,-22.625 -11.313,-11.313 C 98,-311.812 98,-403.187 154.188,-459.312 Z m -45.25,-45.25 11.313,-11.313 -22.626,-22.625 -11.312,11.313 c -93.563,93.563 -93.563,245.813 0,339.438 l 11.313,11.313 22.625,-22.625 -11.313,-11.313 c -81.125,-81.126 -81.125,-213.126 0,-294.188 z m 203.625,203.625 -11.313,11.313 22.688,22.624 11.25,-11.313 c 43.688,-43.688 43.688,-114.75 0,-158.375 L 323.875,-448 l -22.625,22.625 11.313,11.313 c 31.187,31.187 31.187,81.937 0,113.125 z m 67.875,-181 -11.313,-11.313 -22.625,22.625 11.313,11.313 c 56.125,56.125 56.125,147.5 0,203.625 l -11.313,11.312 22.625,22.625 11.313,-11.313 c 68.625,-68.624 68.625,-180.249 0,-248.874 z m 45.25,-45.25 -11.313,-11.313 -22.625,22.625 11.313,11.313 c 81.063,81.063 81.063,213 0,294.188 l -11.313,11.313 22.625,22.625 11.313,-11.313 c 93.562,-93.626 93.562,-245.938 0,-339.438 z" /><path
       inkscape:connector-curvature="0"
       id="path92"
       d="m 403.7021,-188.12409 -11.00684,-11.07091 10.55521,-10.88089 c 38.83077,-40.0289 58.7643,-86.29418 60.5235,-140.47373 1.44459,-44.48995 -9.63051,-84.46958 -33.55839,-121.14131 -8.23941,-12.62768 -14.60518,-20.44772 -26.94646,-33.10238 l -10.59908,-10.86824 11.01944,-11.09082 11.01945,-11.09082 10.3929,10.72143 c 38.82203,40.04923 61.44111,86.40436 68.62159,140.63185 1.49626,11.29988 1.49676,46.79257 8.1e-4,58.09798 -4.5018,34.02172 -15.85133,66.86026 -32.72624,94.68949 -10.2373,16.88283 -21.0794,30.67328 -37.06715,47.14703 l -9.22191,9.50222 z"
       style="opacity:1;fill:#0000ff;fill-opacity:1;stroke:none;stroke-width:0.18443805;stroke-linejoin:round;stroke-miterlimit:4;stroke-dasharray:none;stroke-opacity:1" /><g
       id="g4749"><path
         style="opacity:1;fill:#0000ff;fill-opacity:1;stroke:none;stroke-width:0.18443805;stroke-linejoin:round;stroke-miterlimit:4;stroke-dasharray:none;stroke-opacity:1"
         d="m 358.04439,-233.81714 -10.52495,-10.55489 9.46479,-9.82667 c 12.21319,-12.68017 19.93615,-23.19253 26.7293,-36.38343 17.76756,-34.50096 21.34625,-72.86054 10.17876,-109.10485 -7.35278,-23.86358 -17.86577,-41.26688 -36.75727,-60.84827 l -9.62003,-9.97134 11.00331,-11.08666 11.00331,-11.08667 9.05564,9.52152 c 17.03791,17.91445 25.74218,29.997 34.76184,48.2535 21.74572,44.01509 23.86983,95.96563 5.80314,141.93095 -8.76816,22.30799 -20.53564,40.13404 -38.8657,58.87597 -5.82869,5.95965 -10.84727,10.83573 -11.1524,10.83573 -0.30514,0 -5.29102,-4.7497 -11.07974,-10.55489 z"
         id="path94"
         inkscape:connector-curvature="0" /><path
         style="opacity:1;fill:#0000ff;fill-opacity:1;stroke:none;stroke-width:0.18443805;stroke-linejoin:round;stroke-miterlimit:4;stroke-dasharray:none;stroke-opacity:1"
         d="m 312.86127,-279.00024 -10.52075,-10.55068 8.24331,-8.62265 c 9.32459,-9.7537 13.89613,-16.21368 18.452,-26.07424 9.7606,-21.12554 9.35316,-48.08881 -1.03905,-68.76183 -4.85251,-9.653 -7.70963,-13.54878 -17.27266,-23.55188 l -8.39336,-8.77961 10.76501,-10.765 10.76501,-10.76501 9.29562,9.21079 c 22.71894,22.51159 34.04833,49.08065 34.05679,79.86808 0.006,23.61865 -6.92802,45.86047 -20.05737,64.33214 -4.36371,6.1393 -21.92948,25.01056 -23.28036,25.01056 -0.27139,0 -5.22778,-4.7478 -11.01419,-10.55067 z"
         id="path96"
         inkscape:connector-curvature="0" /><path
         style="opacity:1;fill:#0000ff;fill-opacity:1;stroke:none;stroke-width:0.18443805;stroke-linejoin:round;stroke-miterlimit:4;stroke-dasharray:none;stroke-opacity:1"
         d="m 178.6994,-277.01716 c -18.83963,-20.25964 -27.18167,-35.66422 -31.92932,-58.96133 -1.94369,-9.53786 -2.64489,-28.41783 -1.34804,-36.29648 3.17218,-19.27169 9.58701,-35.52157 19.64741,-49.77027 2.52661,-3.57848 8.68588,-10.76403 13.68727,-15.9679 l 9.09342,-9.46157 11.01292,11.08736 11.01292,11.08735 -8.72401,9.0304 c -13.30885,13.77627 -19.46652,24.30759 -22.96101,39.2697 -3.84754,16.4737 -3.26899,29.69898 1.99501,45.60488 3.81658,11.53231 10.25599,21.62119 20.83498,32.64299 l 8.83727,9.20717 -11.0908,11.09079 -11.09079,11.0908 z"
         id="path98"
         inkscape:connector-curvature="0" /><path
         style="opacity:1;fill:#0000ff;fill-opacity:1;stroke:none;stroke-width:0.18443805;stroke-linejoin:round;stroke-miterlimit:4;stroke-dasharray:none;stroke-opacity:1"
         d="m 133.02183,-232.18077 c -5.21725,-5.49251 -12.09947,-13.32249 -15.29382,-17.39997 -45.840783,-58.51404 -49.494803,-140.88475 -9.01425,-203.20363 6.91926,-10.65206 13.86514,-19.18166 24.71863,-30.35474 l 9.23043,-9.50223 11.01643,11.08052 11.01642,11.08053 -9.66371,9.94908 c -14.70251,15.13667 -22.18465,25.69057 -29.93573,42.22573 -13.85799,29.56286 -17.04341,65.67249 -8.63313,97.8643 6.44436,24.66693 18.7657,45.79569 38.54387,66.09541 l 9.6982,9.95396 -11.09871,11.09871 -11.09872,11.09871 z"
         id="path100"
         inkscape:connector-curvature="0" /></g><path
       inkscape:connector-curvature="0"
       id="path102"
       d="m 86.744456,-188.02787 c -19.919415,-20.66073 -33.223152,-39.27873 -44.995124,-62.9687 -13.697719,-27.56537 -21.322527,-54.43603 -24.170054,-85.17796 -1.273189,-13.74536 -0.471452,-43.67003 1.507211,-56.25634 8.24651,-52.45619 30.217308,-96.0697 67.760453,-134.50905 l 10.628562,-10.88228 11.009976,11.07083 11.00997,11.07082 -11.62875,11.92682 c -39.674147,40.69103 -59.742068,89.83888 -59.742068,146.31281 0,56.43607 20.07686,105.52565 59.893508,146.44456 l 11.48679,11.80478 -11.07967,11.07968 -11.079685,11.07968 z"
       style="opacity:1;fill:#0000ff;fill-opacity:1;stroke:none;stroke-width:0.18443805;stroke-linejoin:round;stroke-miterlimit:4;stroke-dasharray:none;stroke-opacity:1" /></g></svg>