<?xml version="1.0" encoding="UTF-8" standalone="no"?>
<svg
   xmlns:dc="http://purl.org/dc/elements/1.1/"
   xmlns:cc="http://creativecommons.org/ns#"
   xmlns:rdf="http://www.w3.org/1999/02/22-rdf-syntax-ns#"
   xmlns:svg="http://www.w3.org/2000/svg"
   xmlns="http://www.w3.org/2000/svg"
   xmlns:sodipodi="http://sodipodi.sourceforge.net/DTD/sodipodi-0.dtd"
   xmlns:inkscape="http://www.inkscape.org/namespaces/inkscape"
   viewBox="0 0 96 96"
   version="1.1"
   id="svg30"
   sodipodi:docname="wired-disconnected.svg"
   inkscape:version="0.92.2 2405546, 2018-03-11"
   width="96"
   height="96">
  <metadata
     id="metadata36">
    <rdf:RDF>
      <cc:Work
         rdf:about="">
        <dc:format>image/svg+xml</dc:format>
        <dc:type
           rdf:resource="http://purl.org/dc/dcmitype/StillImage" />
        <dc:title></dc:title>
      </cc:Work>
    </rdf:RDF>
  </metadata>
  <defs
     id="defs34" />
  <sodipodi:namedview
     pagecolor="#ffffff"
     bordercolor="#666666"
     borderopacity="1"
     objecttolerance="10"
     gridtolerance="10"
     guidetolerance="10"
     inkscape:pageopacity="0"
     inkscape:pageshadow="2"
     inkscape:window-width="916"
     inkscape:window-height="875"
     id="namedview32"
     showgrid="false"
     inkscape:zoom="2.4940555"
     inkscape:cx="50.082855"
     inkscape:cy="47.3125"
     inkscape:window-x="569"
     inkscape:window-y="0"
     inkscape:window-maximized="0"
     inkscape:current-layer="svg30" />
  <g
     id="g64"
     transform="matrix(0.72203059,0,0,0.72203059,4.0073982,13.844054)">
    <path
       d="m 6.504,1.993 h 108.85 a 4.5139,4.5139 0 0 1 4.5139,4.5139 v 81.597 a 4.5139,4.5139 0 0 1 -4.5139,4.5139 H 6.504 A 4.5139,4.5139 0 0 1 1.9901,88.1039 V 6.5069 A 4.5139,4.5139 0 0 1 6.504,1.993"
       id="path2"
       inkscape:connector-curvature="0"
       style="fill:#ffffff;stroke:#0a0a0a;stroke-width:4;stroke-linecap:square" />
    <path
       d="m 16.052,7.722 h 89.41 c 2.3083,0 4.1667,1.8583 4.1667,4.1667 l 2.8e-4,52.653 h -21.742 v 9.414 h -8.694 l 4e-5,12.586 h -36.871 l -4e-5,-12.586 h -8.694 v -9.414 h -21.742 l -3.4e-4,-52.653 c -1.1e-5,-2.3083 1.8583,-4.1667 4.1667,-4.1667 z"
       id="path4"
       inkscape:connector-curvature="0"
       style="fill:#dcdcdc;stroke:#0a0a0a;stroke-width:2.5;stroke-linecap:square" />
    <g
       transform="translate(-58.27389,-67.938)"
       id="g22"
       style="fill:#666666;stroke:#191919;stroke-linecap:square">
      <path
         d="m 80.556,75.747 h 3.9062 V 98.533 H 80.556 Z"
         id="path6"
         inkscape:connector-curvature="0" />
      <path
         d="m 153.6,75.747 h 3.9062 V 98.533 H 153.6 Z"
         id="path8"
         inkscape:connector-curvature="0" />
      <path
         d="m 132.73,75.747 h 3.9062 V 98.533 H 132.73 Z"
         id="path10"
         inkscape:connector-curvature="0" />
      <path
         d="m 122.3,75.747 h 3.9062 V 98.533 H 122.3 Z"
         id="path12"
         inkscape:connector-curvature="0" />
      <path
         d="m 111.86,75.747 h 3.9062 V 98.533 H 111.86 Z"
         id="path14"
         inkscape:connector-curvature="0" />
      <path
         d="m 101.43,75.747 h 3.9062 V 98.533 H 101.43 Z"
         id="path16"
         inkscape:connector-curvature="0" />
      <path
         d="m 90.991,75.747 h 3.9062 V 98.533 H 90.991 Z"
         id="path18"
         inkscape:connector-curvature="0" />
      <path
         d="m 143.17,75.747 h 3.9062 V 98.533 H 143.17 Z"
         id="path20"
         inkscape:connector-curvature="0" />
    </g>
    <path
       d="M 11.636,69.092 H 28.737 V 82.981 H 11.636 Z"
       id="path24"
       inkscape:connector-curvature="0"
       style="fill:#4d4d4d;stroke:#0a0a0a;stroke-width:2;stroke-linecap:square" />
    <path
       d="m 92.774,69.092 h 17.101 V 82.981 H 92.774 Z"
       id="path26"
       inkscape:connector-curvature="0"
       style="fill:#4d4d4d;stroke:#0a0a0a;stroke-width:2;stroke-linecap:square" />
  </g>
</svg>
