<?xml version="1.0" encoding="UTF-8" standalone="no"?>
<svg
   xmlns:dc="http://purl.org/dc/elements/1.1/"
   xmlns:cc="http://creativecommons.org/ns#"
   xmlns:rdf="http://www.w3.org/1999/02/22-rdf-syntax-ns#"
   xmlns:svg="http://www.w3.org/2000/svg"
   xmlns="http://www.w3.org/2000/svg"
   xmlns:sodipodi="http://sodipodi.sourceforge.net/DTD/sodipodi-0.dtd"
   xmlns:inkscape="http://www.inkscape.org/namespaces/inkscape"
   version="1.1"
   x="0px"
   y="0px"
   viewBox="0 0 24 30"
   enable-background="new 0 0 24 24"
   xml:space="preserve"
   id="svg8"
   sodipodi:docname="usb-connected.svg"
   inkscape:version="0.92.2 2405546, 2018-03-11"
   width="96"
   height="96"><metadata
     id="metadata14"><rdf:RDF><cc:Work
         rdf:about=""><dc:format>image/svg+xml</dc:format><dc:type
           rdf:resource="http://purl.org/dc/dcmitype/StillImage" /><dc:title></dc:title></cc:Work></rdf:RDF></metadata><defs
     id="defs12" /><sodipodi:namedview
     pagecolor="#ffffff"
     bordercolor="#666666"
     borderopacity="1"
     objecttolerance="10"
     gridtolerance="10"
     guidetolerance="10"
     inkscape:pageopacity="0"
     inkscape:pageshadow="2"
     inkscape:window-width="1538"
     inkscape:window-height="881"
     id="namedview10"
     showgrid="true"
     inkscape:snap-page="false"
     inkscape:zoom="4"
     inkscape:cx="64.219145"
     inkscape:cy="81.558354"
     inkscape:window-x="31"
     inkscape:window-y="0"
     inkscape:window-maximized="1"
     inkscape:current-layer="svg8"
     units="px" /><g
     id="g34"
     transform="matrix(1.3357077,0,0,1.3357077,-4.0793152,-1.0282197)"><path
       id="path2"
       d="M 20.674,11.025 C 20.687,10.74 20.639,10.383 20.601,10.088 20.581,9.941 20.564,9.807 20.556,9.71 20.516,9.205 20.472,8.827 20.392,8.575 v 0 C 20.349,8.441 20.297,8.349 20.231,8.297 l -2.196,2.752 -0.005,0.005 c 0.014,0.467 0.084,1.311 0.187,2.007 0.062,0.42 0.131,0.777 0.197,0.945 0.237,0.023 0.42,0.011 0.491,-0.096 l 1.055,-1.568 c -0.194,-0.118 -0.409,-0.23 -0.644,-0.334 -0.378,-0.169 -0.547,-0.612 -0.379,-0.989 0.169,-0.377 0.611,-0.547 0.989,-0.378 0.267,0.119 0.516,0.247 0.748,0.384 z m 0.378,0.243 c 0.441,0.308 0.802,0.651 1.078,1.028 0.517,0.705 0.738,1.511 0.652,2.396 -0.414,4.23 -3.782,4.893 -7.977,4.482 -1.693,-0.165 -3.498,-0.505 -5.284,-0.84 -2.498,-0.47 -6.101,-0.819 -8.245,-0.74 v -1.499 c 2.323,-0.079 5.96,0.285 8.521,0.766 1.763,0.332 3.544,0.666 5.148,0.823 3.36,0.328 6.05,-0.115 6.345,-3.133 0.05,-0.508 -0.077,-0.968 -0.371,-1.369 -0.159,-0.218 -0.368,-0.423 -0.625,-0.614 l -1.054,1.569 c -0.252,0.375 -0.734,0.301 -1.302,0.213 -0.126,-0.02 -0.258,-0.04 -0.409,-0.057 l -1.654,-0.188 c -0.147,-0.017 -0.306,0.006 -0.48,0.063 -0.189,0.063 -0.397,0.165 -0.634,0.301 -0.208,0.119 -0.437,0.177 -0.675,0.191 -0.227,0.014 -0.463,-0.012 -0.701,-0.061 v 0 L 7.884,13.523 C 7.656,13.479 7.458,13.438 7.296,13.365 7.098,13.275 6.962,13.145 6.907,12.93 L 6.595,11.707 2.004,10.762 1.987,10.76 1.97,10.755 C 1.74,10.681 1.566,10.547 1.449,10.355 1.338,10.173 1.281,9.942 1.279,9.663 L 1.277,9.661 1.278,8.637 V 8.562 L 1.329,8.504 4.598,4.804 4.671,4.721 4.78,4.738 9.664,5.74 l 0.61,-0.7 0.013,-0.015 0.01,-0.008 C 10.462,4.881 10.65,4.793 10.858,4.755 11.06,4.718 11.278,4.73 11.511,4.789 v 0 l 5.43,1.236 c 0.382,0.087 0.551,0.433 0.733,0.814 h 0.001 l 0.063,0.129 v 0 c 0.075,0.151 0.185,0.277 0.315,0.373 0.138,0.1 0.303,0.169 0.48,0.203 l 1.669,0.31 c 0.287,0.054 0.463,0.25 0.574,0.598 v 0 c 0.094,0.291 0.142,0.696 0.184,1.227 0.008,0.107 0.024,0.227 0.041,0.357 0.052,0.382 0.114,0.857 0.051,1.232 z M 5.494,6.804 6.55,7.026 7.401,6.063 6.345,5.841 Z M 3.793,8.729 4.85,8.951 5.701,7.988 4.645,7.765 Z m 9.826,2.711 0.464,2.815 c 0.17,-0.012 0.332,-0.055 0.477,-0.138 0.26,-0.148 0.491,-0.262 0.709,-0.334 0.094,-0.03 0.185,-0.054 0.273,-0.069 l -0.451,-2.888 c -0.346,0.081 -0.745,0.261 -1.199,0.54 l -0.021,0.013 -0.028,0.008 c -0.073,0.022 -0.148,0.039 -0.224,0.053 z m 0.154,2.81 -0.457,-2.776 c -0.051,0.002 -0.103,0.002 -0.153,10e-4 C 12.93,11.47 12.689,11.432 12.442,11.362 L 6.615,10.135 6.616,10.149 7.3,12.832 c 0.019,0.075 0.077,0.126 0.162,0.164 0.121,0.055 0.296,0.09 0.499,0.13 l 0.931,0.183 -0.681,-2.242 0.147,-0.045 0.705,2.32 0.22,0.043 -0.681,-2.241 0.147,-0.045 0.704,2.319 0.228,0.045 L 9,11.222 l 0.147,-0.045 0.704,2.319 0.256,0.05 -0.68,-2.241 0.147,-0.044 0.705,2.319 0.24,0.046 -0.68,-2.24 0.147,-0.044 0.704,2.319 2.771,0.542 0.002,0.001 c 0.106,0.02 0.21,0.036 0.31,0.046 z m 1.618,-3.471 c 0.124,-0.009 0.239,-0.002 0.346,0.02 l 0.01,0.002 1.98,0.305 c 0.018,0.487 0.088,1.317 0.188,2 0.049,0.332 0.107,0.634 0.174,0.857 L 18.003,13.949 C 17.859,13.928 17.71,13.904 17.577,13.888 H 17.576 L 15.921,13.7 15.848,13.694 Z m 0.018,-3.218 c -0.108,0 -0.195,0.087 -0.195,0.195 0,0.108 0.087,0.195 0.195,0.195 0.107,0 0.195,-0.087 0.195,-0.195 0,-0.108 -0.087,-0.195 -0.195,-0.195 z m -1.278,1.614 c -0.107,0 -0.195,0.087 -0.195,0.195 0,0.108 0.088,0.195 0.195,0.195 0.108,0 0.195,-0.087 0.195,-0.195 0,-0.107 -0.087,-0.195 -0.195,-0.195 z M 13.032,8.46 c -0.007,0.083 0.042,0.154 0.13,0.176 0.118,0.03 0.263,-0.04 0.323,-0.154 0.061,-0.114 0.014,-0.231 -0.104,-0.261 -0.087,-0.022 -0.19,0.01 -0.262,0.076 L 12.733,8.199 12.79,7.57 12.795,7.525 12.75,7.514 11.804,7.274 11.907,7.08 11.368,6.943 11.094,7.463 11.632,7.6 11.735,7.406 12.636,7.635 12.588,8.164 10.549,7.648 10.69,7.38 9.886,7.571 10.323,8.076 10.464,7.81 12.497,8.325 12.053,8.74 11.144,8.51 c 0.03,-0.12 -0.032,-0.23 -0.158,-0.262 -0.149,-0.037 -0.331,0.049 -0.407,0.193 -0.077,0.146 -0.017,0.293 0.132,0.331 0.125,0.032 0.274,-0.024 0.364,-0.13 l 0.954,0.241 0.045,0.012 0.039,-0.037 0.53,-0.495 z m -0.194,1.63 0.094,0.021 0.06,-0.076 L 15.31,7.097 15.459,6.908 15.224,6.855 10.726,5.851 10.638,5.831 10.578,5.9 8.115,8.756 7.951,8.946 8.195,9.004 Z M 8.509,8.765 12.814,9.771 14.921,7.1 10.749,6.168 Z M 19.797,8.19 17.79,10.705 15.807,10.4 v 0 c -0.559,-0.111 -1.261,0.091 -2.104,0.605 -0.17,0.047 -0.348,0.069 -0.531,0.065 -0.196,-0.004 -0.403,-0.038 -0.621,-0.1 L 12.537,10.967 6.711,9.74 C 7.586,8.753 8.437,7.773 9.287,6.793 c 0.434,-0.5 0.869,-1.001 1.278,-1.47 0.11,-0.088 0.232,-0.145 0.364,-0.169 0.143,-0.026 0.304,-0.017 0.483,0.029 l 0.004,0.001 5.435,1.238 c 0.191,0.043 0.318,0.306 0.458,0.595 v 10e-4 l 0.063,0.129 0.001,10e-4 c 0.104,0.212 0.257,0.388 0.441,0.522 0.188,0.137 0.408,0.23 0.646,0.273 z M 6.527,7.545 C 6.333,7.794 6.337,8.12 6.536,8.273 6.733,8.427 7.05,8.35 7.243,8.101 7.436,7.852 7.432,7.526 7.234,7.372 7.037,7.219 6.72,7.296 6.527,7.545 Z M 1.854,8.521 6.4,9.479 v 0 C 7.257,8.512 8.12,7.52 8.98,6.527 L 9.35,6.102 4.828,5.155 Z M 6.243,9.756 1.684,8.796 V 9.662 H 1.683 c 0.002,0.203 0.04,0.364 0.112,0.482 0.063,0.103 0.158,0.177 0.283,0.221 L 6.487,11.283 6.221,10.242 6.22,10.234 6.217,10.22 C 6.194,10.061 6.2,9.922 6.23,9.803 Z"
       inkscape:connector-curvature="0"
       style="clip-rule:evenodd;fill-rule:evenodd" /><path
       sodipodi:nodetypes="csssccccsccsccccscscccccccc"
       inkscape:connector-curvature="0"
       id="path4942"
       d="m 15.000482,19.173929 c -1.03751,-0.09689 -2.452955,-0.310043 -4.39732,-0.662183 C 9.6187361,18.333458 8.5448177,18.147086 8.2166759,18.097585 6.1306274,17.782901 3.5580486,17.561937 1.9803949,17.561937 H 1.2781906 v -0.736224 -0.736224 l 1.2042913,0.02769 c 2.590931,0.05956 4.8165418,0.311978 8.2090681,0.931024 3.245934,0.592297 4.18401,0.706006 5.855728,0.709802 1.123344,0.0025 1.28374,-0.0066 1.739634,-0.09892 1.537859,-0.311526 2.440846,-1.012697 2.812278,-2.18374 0.291577,-0.919277 0.257212,-1.627369 -0.106486,-2.194142 C 20.854808,13.066309 20.366629,12.568 20.294,12.568 18.275496,11.371242 19.913516,10.379081 21.032987,11.267393 l 0.383905,0.329893 c 0.666079,0.572369 1.074368,1.213645 1.25689,1.974127 0.221265,0.921903 -0.05666,2.469726 -0.61244,3.410771 -0.671677,1.137287 -1.803592,1.836687 -3.454146,2.134285 -0.669612,0.120732 -2.599926,0.151485 -3.606714,0.05746 z m 4.971845,-6.842472 c 0,-0.0063 -0.189556,-0.107443 -0.421236,-0.224762 -0.450762,-0.228258 -0.565711,-0.335899 -0.646438,-0.605344 -0.104673,-0.349365 0.151109,-0.773897 0.527309,-0.875198 0.23337,-0.06284 0.343419,-0.03533 0.807915,0.201939 0.20792,0.106209 0.391879,0.193107 0.408797,0.193107 -0.763988,0.349333 3.954336,4.516704 -0.676347,1.310258 z"
       style="opacity:1;fill:#008000;fill-opacity:1;stroke:none;stroke-width:0.00883884;stroke-linejoin:round;stroke-miterlimit:4;stroke-dasharray:none;stroke-opacity:1" /><path
       inkscape:connector-curvature="0"
       id="path4944"
       d="M 4.1028622,8.9835569 1.8810645,8.5128088 3.3179317,6.8852808 C 4.1082086,5.9901404 4.7727711,5.2384234 4.7947372,5.2147986 c 0.033665,-0.036207 0.3876577,0.02955 2.2536805,0.4186426 1.2175582,0.2538782 2.2233044,0.4700826 2.2349919,0.4804542 0.011687,0.010372 -0.065657,0.118272 -0.171875,0.2397787 C 9.0053159,6.4751808 8.3512777,7.2240089 7.6581159,8.0177366 6.9649543,8.8114644 6.3813606,9.4593991 6.3612409,9.4575913 6.3411215,9.455785 5.3248509,9.2424684 4.1028622,8.9835569 Z M 5.292554,8.4746484 C 5.5287456,8.2072225 5.7169681,7.9843161 5.7108265,7.979301 5.6983906,7.969146 4.7591975,7.7719546 4.6818751,7.763264 4.636681,7.7581845 3.7634892,8.7069988 3.7894585,8.7329681 c 0.014042,0.014042 0.9544152,0.2207032 1.0231789,0.2248591 0.028129,0.0017 0.2406091,-0.2122244 0.4799166,-0.4831788 z M 7.0989396,8.2537828 C 7.2810737,8.1257743 7.412829,7.8684807 7.3949102,7.6758079 7.3585746,7.2851062 6.9745843,7.1579609 6.6259846,7.4212045 6.499444,7.516761 6.3722596,7.7758838 6.3718402,7.9389922 6.3708652,8.3178256 6.7650196,8.4884706 7.0989396,8.2537828 Z M 6.9919662,6.5516165 C 7.221479,6.2921478 7.3972581,6.0693536 7.3825862,6.0565183 7.3321552,6.0124004 6.3389531,5.8246545 6.3116727,5.8540826 6.1009909,6.0813522 5.4965349,6.7822639 5.4965349,6.7992958 c 0,0.024166 0.8677072,0.2159979 1.000005,0.2210805 0.062994,0.00242 0.1589744,-0.088394 0.4954263,-0.4687598 z"
       style="opacity:1;fill:#ffff00;fill-opacity:1;stroke:none;stroke-width:0.00625;stroke-linejoin:round;stroke-miterlimit:4;stroke-dasharray:none;stroke-opacity:1" /><path
       inkscape:connector-curvature="0"
       id="path4946"
       d="M 4.2621599,10.805426 C 3.0590349,10.553725 2.0303144,10.324354 1.9761144,10.295715 1.756168,10.179494 1.6757089,9.872836 1.6907553,9.2081087 l 0.0089,-0.3933941 2.25,0.4738773 2.25,0.4738772 -0.00936,0.1851419 c -0.00698,0.138129 0.026133,0.327924 0.1304175,0.747433 0.076878,0.30926 0.13734,0.56358 0.1343603,0.565156 -0.00298,0.0016 -0.9897925,-0.203072 -2.1929175,-0.454774 z"
       style="opacity:1;fill:#ffff00;fill-opacity:1;stroke:none;stroke-width:0.00625;stroke-linejoin:round;stroke-miterlimit:4;stroke-dasharray:none;stroke-opacity:1" /><path
       inkscape:connector-curvature="0"
       id="path4976"
       d="M 9.9215349,10.395675 C 8.2715349,10.04218 6.8913074,9.7406763 6.8543627,9.7256672 6.8174179,9.710658 7.6611679,8.6999403 8.7293627,7.4796278 10.403361,5.5672413 10.702717,5.2531716 10.897363,5.2050679 c 0.18787,-0.046429 0.702635,0.051984 3.0625,0.5854918 1.560169,0.352716 2.89311,0.6763386 2.962089,0.7191614 0.06898,0.042823 0.237498,0.2823247 0.374484,0.5322265 0.381746,0.6964119 0.64397,0.8532143 1.734474,1.0371657 0.369531,0.062334 0.671818,0.1287317 0.671749,0.1475498 -6.3e-5,0.018818 -0.382882,0.5123397 -0.850693,1.0967147 -0.467811,0.584375 -0.902175,1.1276462 -0.965253,1.2072692 l -0.114688,0.14477 -1.029225,-0.160395 c -0.566074,-0.08822 -1.155253,-0.160394 -1.309286,-0.160394 -0.355265,0 -0.974986,0.193814 -1.418229,0.443543 -0.594546,0.334975 -0.699756,0.324631 -4.0937501,-0.402496 z M 14.228573,8.5211041 c 0.673316,-0.8537505 1.224212,-1.5727961 1.224212,-1.5978791 0,-0.040437 -4.822547,-1.1490618 -4.845677,-1.1139417 -0.01698,0.025779 -2.4220137,2.8241798 -2.5499129,2.9669731 -0.069155,0.077208 -0.109361,0.156754 -0.089346,0.1767684 0.066401,0.066401 4.7005929,1.1433012 4.8700999,1.1317212 0.138069,-0.0094 0.374926,-0.2757591 1.390624,-1.5636419 z m 0.02655,1.0286235 c 0.128348,-0.081354 0.06414,-0.3481021 -0.08906,-0.3699908 -0.187668,-0.026814 -0.303199,0.1318778 -0.215419,0.2958959 0.07343,0.1371966 0.168448,0.1603202 0.304481,0.074095 z m 1.327005,-1.6690887 c 0.111028,-0.1337804 -6.53e-4,-0.3072611 -0.197804,-0.3072611 -0.153025,0 -0.224115,0.1426618 -0.157542,0.3161508 0.04602,0.1199153 0.252739,0.1147437 0.355346,-0.00889 z"
       style="opacity:1;fill:#cccccc;fill-opacity:1;stroke:none;stroke-width:0.0125;stroke-linejoin:round;stroke-miterlimit:4;stroke-dasharray:none;stroke-opacity:1" /><path
       inkscape:connector-curvature="0"
       id="path4978"
       d="M 10.702785,9.2543786 C 9.6199724,8.9989386 8.6982173,8.7770004 8.6544403,8.7611826 8.5681855,8.7300165 10.653579,6.2744931 10.793774,6.2421457 c 0.083,-0.01915 3.967581,0.8377188 4.01564,0.8857778 0.04381,0.043809 -1.995323,2.6021446 -2.069389,2.5962978 -0.03767,-0.00297 -0.954428,-0.2144028 -2.03724,-0.4698427 z m 1.65625,-0.5872508 c 0.272303,-0.2788632 0.474003,-0.3182885 0.639502,-0.125 0.193918,0.2264806 0.516748,0.1252345 0.516748,-0.1620632 0,-0.1577062 -0.148485,-0.236542 -0.301403,-0.1600251 -0.05767,0.028855 -0.17516,0.033882 -0.261097,0.011172 -0.145752,-0.038517 -0.155194,-0.064794 -0.14053,-0.3910848 L 12.827976,7.4903333 12.355079,7.3788478 C 11.967806,7.287548 11.88725,7.2479816 11.910173,7.160324 11.947819,7.016368 11.403162,6.8620462 11.31565,6.9918733 c -0.145231,0.215456 -0.239639,0.4343204 -0.208842,0.4841517 0.06251,0.1011386 0.544034,0.1501479 0.599143,0.06098 0.04097,-0.066288 0.122867,-0.064498 0.445391,0.00973 0.392462,0.090327 0.395327,0.092569 0.414591,0.3244229 0.01067,0.1284072 -0.0034,0.2342622 -0.03125,0.2352334 C 12.506826,8.107365 12.068025,8.0018961 11.559568,7.8720187 10.663184,7.6430515 10.636222,7.6313765 10.672028,7.4877029 10.70586,7.3519528 10.694285,7.3430718 10.533996,7.3817906 10.050354,7.498617 9.8904918,7.5508657 9.8926316,7.5914118 c 0.00482,0.091308 0.4468544,0.5419773 0.4727334,0.481966 0.09864,-0.2287324 0.113123,-0.2286433 1.061651,0.00652 0.51261,0.127091 0.944031,0.2411894 0.958713,0.2535521 0.01468,0.012363 -0.05041,0.1029615 -0.144659,0.2013307 l -0.171352,0.178853 -0.386592,-0.09297 C 11.433678,8.5606783 11.251358,8.4748271 11.169187,8.3786625 11.014688,8.1978524 10.762682,8.1848497 10.613243,8.3499776 c -0.225968,0.2496917 0.0071,0.5242585 0.338776,0.3990705 0.153701,-0.058016 0.264243,-0.050176 0.579715,0.041113 0.544808,0.1576526 0.554647,0.1561894 0.827301,-0.1230333 z"
       style="opacity:1;fill:#cccccc;fill-opacity:1;stroke:none;stroke-width:0.0125;stroke-linejoin:round;stroke-miterlimit:4;stroke-dasharray:none;stroke-opacity:1" /><path
       inkscape:connector-curvature="0"
       id="path4980"
       d="m 12.194032,13.930292 -1.477503,-0.288349 -0.329395,-1.096782 c -0.383853,-1.278112 -0.378049,-1.263955 -0.4898051,-1.194887 -0.068546,0.04236 -0.022192,0.259619 0.2405321,1.127324 0.178993,0.591165 0.315229,1.085058 0.302748,1.097539 -0.07995,0.07995 -0.193164,-0.191021 -0.4838209,-1.158009 -0.3366484,-1.119998 -0.396547,-1.258143 -0.4999852,-1.153125 -0.03643,0.03699 0.061967,0.453912 0.260955,1.105712 0.2869291,0.939854 0.3381671,1.247063 0.1792113,1.074496 -0.029553,-0.03208 -0.201115,-0.550521 -0.3812494,-1.152083 -0.1801344,-0.601563 -0.3370856,-1.104256 -0.3487805,-1.117096 -0.011695,-0.01284 -0.062142,-0.0077 -0.1121056,0.01151 -0.075084,0.02881 -0.049657,0.168384 0.1465823,0.804596 0.4332521,1.404615 0.4385874,1.425987 0.3559898,1.425987 -0.044552,0 -0.2170313,-0.469602 -0.4157313,-1.131893 -0.3001861,-1.000556 -0.4273067,-1.275523 -0.5383516,-1.164478 -0.017364,0.01736 0.1121447,0.500794 0.2877973,1.07429 0.1756527,0.573496 0.3082852,1.07597 0.2947388,1.116609 C 9.143491,13.43876 9.0416999,13.175463 8.7086272,12.077224 8.5320401,11.494964 8.3736416,11.004651 8.3566307,10.98764 c -0.017011,-0.01701 -0.061855,-3e-6 -0.099653,0.03779 -0.049965,0.04997 0.018083,0.35496 0.2492996,1.117367 0.1749129,0.576754 0.304349,1.062318 0.2876358,1.079031 -0.059966,0.05997 -1.2220793,-0.195737 -1.3461392,-0.296195 -0.1802526,-0.14596 -0.8458751,-2.777471 -0.6913795,-2.73334 0.2866151,0.08187 6.1334226,1.285158 6.3196126,1.300593 l 0.216973,0.01799 0.225662,1.359375 c 0.124115,0.747656 0.20929,1.356903 0.189278,1.353881 -0.02001,-0.003 -0.701261,-0.13525 -1.513888,-0.293842 z"
       style="opacity:1;fill:#cccccc;fill-opacity:1;stroke:none;stroke-width:0.0125;stroke-linejoin:round;stroke-miterlimit:4;stroke-dasharray:none;stroke-opacity:1" /><path
       inkscape:connector-curvature="0"
       id="path4982"
       d="m 13.90001,12.964003 c -0.112838,-0.696094 -0.218116,-1.311012 -0.233951,-1.366484 -0.02151,-0.07534 0.109948,-0.168001 0.519592,-0.366241 0.566017,-0.273915 0.892134,-0.395053 0.892134,-0.331387 0,0.06265 0.376127,2.478153 0.409214,2.627984 0.0218,0.09874 -0.0024,0.153476 -0.07955,0.179675 -0.061,0.02072 -0.352553,0.146668 -0.647894,0.279878 -0.295341,0.13321 -0.563398,0.2422 -0.595682,0.2422 -0.03228,0 -0.15102,-0.569531 -0.263859,-1.265625 z"
       style="opacity:1;fill:#cccccc;fill-opacity:1;stroke:none;stroke-width:0.0125;stroke-linejoin:round;stroke-miterlimit:4;stroke-dasharray:none;stroke-opacity:1" /><path
       inkscape:connector-curvature="0"
       id="path4984"
       d="m 16.864957,13.786751 c -0.512369,-0.06272 -0.950674,-0.136382 -0.974012,-0.163701 -0.05449,-0.06378 -0.465758,-2.761657 -0.426916,-2.8005 0.01607,-0.01607 0.52275,0.04597 1.125956,0.137857 l 1.096739,0.167074 0.07633,0.847948 c 0.04198,0.466372 0.11587,1.072949 0.164196,1.347949 0.04833,0.275 0.0879,0.521094 0.08795,0.546875 1.07e-4,0.05732 3.57e-4,0.05734 -1.150242,-0.0835 z"
       style="opacity:1;fill:#cccccc;fill-opacity:1;stroke:none;stroke-width:0.0125;stroke-linejoin:round;stroke-miterlimit:4;stroke-dasharray:none;stroke-opacity:1" /><path
       inkscape:connector-curvature="0"
       id="path4986"
       d="m 18.421209,13.901503 c -0.1203,-0.339879 -0.343424,-2.004955 -0.343424,-2.562821 0,-0.291965 0.02159,-0.324939 1.072572,-1.6384711 0.589915,-0.7372804 1.092307,-1.3283134 1.116427,-1.3134065 0.08625,0.053306 0.188853,0.5753634 0.280435,1.4269095 0.137549,1.2789481 0.170951,1.1843261 -0.328809,0.9314541 -0.461927,-0.233729 -0.75048,-0.246743 -1.054477,-0.04756 -0.210044,0.137626 -0.356711,0.49656 -0.308316,0.75453 0.05625,0.299812 0.225885,0.476408 0.654376,0.681207 0.236803,0.113182 0.372543,0.213825 0.353903,0.2624 -0.01663,0.04334 -0.257114,0.41744 -0.534408,0.831338 -0.457938,0.683532 -0.521432,0.752542 -0.692399,0.752542 -0.103525,0 -0.200671,-0.03516 -0.21588,-0.07813 z"
       style="opacity:1;fill:#cccccc;fill-opacity:1;stroke:none;stroke-width:0.0125;stroke-linejoin:round;stroke-miterlimit:4;stroke-dasharray:none;stroke-opacity:1" /></g></svg>