<?xml version="1.0" encoding="UTF-8" standalone="no"?>
<svg
   xmlns:dc="http://purl.org/dc/elements/1.1/"
   xmlns:cc="http://creativecommons.org/ns#"
   xmlns:rdf="http://www.w3.org/1999/02/22-rdf-syntax-ns#"
   xmlns:svg="http://www.w3.org/2000/svg"
   xmlns="http://www.w3.org/2000/svg"
   xmlns:sodipodi="http://sodipodi.sourceforge.net/DTD/sodipodi-0.dtd"
   xmlns:inkscape="http://www.inkscape.org/namespaces/inkscape"
   version="1.1"
   x="0px"
   y="0px"
   viewBox="0 0 96 96"
   enable-background="new 0 0 24 24"
   xml:space="preserve"
   id="svg244"
   sodipodi:docname="cellular-disconnected.svg"
   inkscape:version="0.92.2 2405546, 2018-03-11"
   width="96"
   height="96"><metadata
     id="metadata250"><rdf:RDF><cc:Work
         rdf:about=""><dc:format>image/svg+xml</dc:format><dc:type
           rdf:resource="http://purl.org/dc/dcmitype/StillImage" /><dc:title></dc:title></cc:Work></rdf:RDF></metadata><defs
     id="defs248" /><sodipodi:namedview
     pagecolor="#ffffff"
     bordercolor="#666666"
     borderopacity="1"
     objecttolerance="10"
     gridtolerance="10"
     guidetolerance="10"
     inkscape:pageopacity="0"
     inkscape:pageshadow="2"
     inkscape:window-width="934"
     inkscape:window-height="875"
     id="namedview246"
     showgrid="true"
     inkscape:zoom="3.9333333"
     inkscape:cx="40.367232"
     inkscape:cy="15"
     inkscape:window-x="633"
     inkscape:window-y="0"
     inkscape:window-maximized="0"
     inkscape:current-layer="svg244"><inkscape:grid
       type="xygrid"
       id="grid252" /></sodipodi:namedview><path
     inkscape:connector-curvature="0"
     id="path14"
     d="m 50.237777,31.41124 c 2.600297,-0.887838 4.471079,-3.242539 4.471079,-6.039014 0,-3.555641 -3.003097,-6.433609 -6.713332,-6.433609 -3.710234,0 -6.713331,2.877968 -6.713331,6.433609 0,2.796475 1.870782,5.151176 4.471079,6.039014 L 21.298844,91.067951 c -0.344617,0.840658 -0.102938,1.801411 0.608676,2.397592 0.707137,0.60047 1.74099,0.703408 2.560017,0.265922 L 47.995524,81.203084 71.523512,93.731465 c 0.340142,0.175852 0.716089,0.265923 1.08756,0.265923 0.528115,0 1.056231,-0.180141 1.472457,-0.531845 0.711613,-0.596181 0.957769,-1.552645 0.613151,-2.397592 z m -9.564259,24.121745 3.737088,2.8651 -7.165362,5.490013 z m 2.009524,-3.958814 c -0.09846,-0.0772 -0.214827,-0.09865 -0.32224,-0.158696 l 5.634722,-13.746478 5.634723,13.746478 c -0.107413,0.06005 -0.223778,0.08578 -0.32224,0.158696 l -5.312483,4.078908 z m 12.634489,3.954525 3.428274,8.363691 -7.165362,-5.494302 z M 27.743642,87.079114 33.347036,73.40555 43.385704,78.749735 Z m 8.593064,-16.993306 11.658818,-8.938427 11.658819,8.938427 -11.658819,6.206288 z m 16.268639,8.659638 10.038668,-5.344185 5.607869,13.673564 z"
     style="stroke-width:4.38132143" /></svg>