<?xml version="1.0" encoding="UTF-8" standalone="no"?>
<svg
   xmlns:dc="http://purl.org/dc/elements/1.1/"
   xmlns:cc="http://creativecommons.org/ns#"
   xmlns:rdf="http://www.w3.org/1999/02/22-rdf-syntax-ns#"
   xmlns:svg="http://www.w3.org/2000/svg"
   xmlns="http://www.w3.org/2000/svg"
   xmlns:sodipodi="http://sodipodi.sourceforge.net/DTD/sodipodi-0.dtd"
   xmlns:inkscape="http://www.inkscape.org/namespaces/inkscape"
   version="1.1"
   x="0px"
   y="0px"
   viewBox="0 0 96 96"
   enable-background="new 0 0 24 24"
   xml:space="preserve"
   id="svg22"
   sodipodi:docname="cellular-connected.svg"
   inkscape:version="0.92.2 2405546, 2018-03-11"
   width="96"
   height="96"><metadata
     id="metadata28"><rdf:RDF><cc:Work
         rdf:about=""><dc:format>image/svg+xml</dc:format><dc:type
           rdf:resource="http://purl.org/dc/dcmitype/StillImage" /><dc:title /></cc:Work></rdf:RDF></metadata><defs
     id="defs26" /><sodipodi:namedview
     pagecolor="#ffffff"
     bordercolor="#666666"
     borderopacity="1"
     objecttolerance="10"
     gridtolerance="10"
     guidetolerance="10"
     inkscape:pageopacity="0"
     inkscape:pageshadow="2"
     inkscape:window-width="1006"
     inkscape:window-height="875"
     id="namedview24"
     showgrid="true"
     inkscape:zoom="5.5625733"
     inkscape:cx="54.146791"
     inkscape:cy="58.799959"
     inkscape:window-x="561"
     inkscape:window-y="0"
     inkscape:window-maximized="0"
     inkscape:current-layer="svg22"><inkscape:grid
       type="xygrid"
       id="grid37" /></sodipodi:namedview><g
     id="g3821"
     transform="matrix(4.4755541,0,0,4.2890726,1.0022064,-289.87461)"><path
       style="fill:#0000ff"
       d="m 12.268,75.975 c 0.098,0.098 0.226,0.146 0.354,0.146 0.128,0 0.256,-0.049 0.354,-0.146 C 13.636,75.314 14,74.435 14,73.5 c 0,-0.935 -0.364,-1.814 -1.025,-2.475 -0.195,-0.195 -0.512,-0.195 -0.707,0 -0.195,0.195 -0.195,0.512 0,0.707 C 12.74,72.205 13,72.833 13,73.5 c 0,0.667 -0.26,1.295 -0.732,1.768 -0.196,0.195 -0.196,0.511 0,0.707 z"
       id="path2"
       inkscape:connector-curvature="0" /><path
       style="fill:#0000ff"
       d="m 8.025,75.975 c 0.098,0.098 0.226,0.146 0.354,0.146 0.128,0 0.256,-0.049 0.354,-0.146 0.195,-0.195 0.195,-0.512 0,-0.707 C 8.26,74.795 8,74.167 8,73.5 8,72.833 8.26,72.205 8.732,71.732 8.927,71.537 8.927,71.22 8.732,71.025 8.537,70.83 8.22,70.83 8.025,71.025 7.364,71.686 7,72.565 7,73.5 c 0,0.935 0.364,1.814 1.025,2.475 z"
       id="path4"
       inkscape:connector-curvature="0" /><path
       style="fill:#0000ff"
       d="m 13.682,76.682 c -0.195,0.195 -0.195,0.512 0,0.707 0.098,0.098 0.226,0.146 0.354,0.146 0.128,0 0.256,-0.049 0.354,-0.146 2.145,-2.145 2.145,-5.634 0,-7.778 -0.195,-0.195 -0.512,-0.195 -0.707,0 -0.195,0.195 -0.195,0.512 0,0.707 1.754,1.755 1.754,4.609 -10e-4,6.364 z"
       id="path6"
       inkscape:connector-curvature="0" /><path
       style="fill:#0000ff"
       d="m 6.611,77.389 c 0.098,0.098 0.226,0.146 0.354,0.146 0.128,0 0.256,-0.049 0.354,-0.146 0.195,-0.195 0.195,-0.512 0,-0.707 -1.754,-1.754 -1.754,-4.61 0,-6.364 0.195,-0.195 0.195,-0.512 0,-0.707 -0.195,-0.195 -0.512,-0.195 -0.707,0 -2.145,2.144 -2.145,5.634 -0.001,7.778 z"
       id="path8"
       inkscape:connector-curvature="0" /><path
       style="fill:#0000ff"
       d="m 15.097,78.096 c -0.195,0.195 -0.195,0.512 0,0.707 0.098,0.098 0.226,0.146 0.354,0.146 0.128,0 0.256,-0.049 0.354,-0.146 2.924,-2.924 2.924,-7.682 0,-10.606 -0.195,-0.195 -0.512,-0.195 -0.707,0 -0.195,0.195 -0.195,0.512 0,0.707 2.533,2.534 2.533,6.658 -0.001,9.192 z"
       id="path10"
       inkscape:connector-curvature="0" /><path
       style="fill:#0000ff"
       d="m 5.55,78.95 c 0.128,0 0.256,-0.049 0.354,-0.146 0.195,-0.195 0.195,-0.512 0,-0.707 -2.534,-2.534 -2.534,-6.658 0,-9.192 0.195,-0.195 0.195,-0.512 0,-0.707 -0.195,-0.195 -0.512,-0.195 -0.707,0 -2.924,2.924 -2.924,7.682 0,10.606 0.097,0.097 0.225,0.146 0.353,0.146 z"
       id="path12"
       inkscape:connector-curvature="0" /><path
       d="M 11.001,74.908 C 11.582,74.701 12,74.152 12,73.5 12,72.671 11.329,72 10.5,72 9.671,72 9,72.671 9,73.5 c 0,0.652 0.418,1.201 0.999,1.408 L 4.535,88.817 c -0.077,0.196 -0.023,0.42 0.136,0.559 0.158,0.14 0.389,0.164 0.572,0.062 l 5.257,-2.921 5.257,2.921 c 0.076,0.041 0.16,0.062 0.243,0.062 0.118,0 0.236,-0.042 0.329,-0.124 0.159,-0.139 0.214,-0.362 0.137,-0.559 z M 8.864,80.532 9.699,81.2 8.098,82.48 Z M 9.313,79.609 C 9.291,79.591 9.265,79.586 9.241,79.572 l 1.259,-3.205 1.259,3.205 c -0.024,0.014 -0.05,0.02 -0.072,0.037 L 10.5,80.56 Z m 2.823,0.922 0.766,1.95 -1.601,-1.281 z m -6.161,7.356 1.252,-3.188 2.243,1.246 z m 1.92,-3.962 2.605,-2.084 2.605,2.084 -2.605,1.447 z m 3.635,2.019 2.243,-1.246 1.253,3.188 z"
       id="path14"
       inkscape:connector-curvature="0" /><ellipse
       transform="matrix(0.99999139,-0.00415038,0.00372458,0.99999306,0,0)"
       ry="1.4999975"
       rx="1.5000025"
       cy="73.542953"
       cx="10.226171"
       id="path39"
       style="opacity:1;fill:#0000ff;fill-opacity:1;stroke:none;stroke-width:0.22213739;stroke-linejoin:round;stroke-miterlimit:4;stroke-dasharray:none;stroke-opacity:1" /></g></svg>