<?xml version="1.0" encoding="UTF-8" standalone="no"?>
<svg
   xmlns:dc="http://purl.org/dc/elements/1.1/"
   xmlns:cc="http://creativecommons.org/ns#"
   xmlns:rdf="http://www.w3.org/1999/02/22-rdf-syntax-ns#"
   xmlns:svg="http://www.w3.org/2000/svg"
   xmlns="http://www.w3.org/2000/svg"
   xmlns:sodipodi="http://sodipodi.sourceforge.net/DTD/sodipodi-0.dtd"
   xmlns:inkscape="http://www.inkscape.org/namespaces/inkscape"
   data-name="Layer 1"
   viewBox="0 0 96 96"
   x="0px"
   y="0px"
   version="1.1"
   id="svg10"
   sodipodi:docname="virtual-connected.svg"
   inkscape:version="0.92.2 2405546, 2018-03-11"
   width="96"
   height="96">
  <metadata
     id="metadata16">
    <rdf:RDF>
      <cc:Work
         rdf:about="">
        <dc:format>image/svg+xml</dc:format>
        <dc:type
           rdf:resource="http://purl.org/dc/dcmitype/StillImage" />
        <dc:title>network_hubs_outline</dc:title>
      </cc:Work>
    </rdf:RDF>
  </metadata>
  <defs
     id="defs14" />
  <sodipodi:namedview
     pagecolor="#ffffff"
     bordercolor="#666666"
     borderopacity="1"
     objecttolerance="10"
     gridtolerance="10"
     guidetolerance="10"
     inkscape:pageopacity="0"
     inkscape:pageshadow="2"
     inkscape:window-width="1062"
     inkscape:window-height="875"
     id="namedview12"
     showgrid="true"
     inkscape:zoom="3.776"
     inkscape:cx="48.94171"
     inkscape:cy="62.5"
     inkscape:window-x="505"
     inkscape:window-y="0"
     inkscape:window-maximized="0"
     inkscape:current-layer="svg10">
    <inkscape:grid
       type="xygrid"
       id="grid20" />
  </sodipodi:namedview>
  <title
     id="title2">network_hubs_outline</title>
  <g
     id="g4971"
     transform="matrix(0.87950312,0,0,0.87950312,4.0739841,29.624334)">
    <path
       inkscape:connector-curvature="0"
       id="path4"
       d="M 81,26.29 A 18.91,18.91 0 0 0 69,30.58 L 58.15,20.26 A 18.88,18.88 0 0 0 61.88,9 c 0,-0.53 0,-1 -0.08,-1.57 l 15.6,-3.8 a 11.85,11.85 0 1 0 -1.15,-5.06 c 0,0.15 0,0.29 0,0.44 L 60.81,2.78 A 18.95,18.95 0 0 0 30,-4.9 l -7.64,-6.39 a 11.95,11.95 0 1 0 -3.06,3.64 l 7.64,6.39 a 18.87,18.87 0 0 0 0.95,21.86 l -8.67,8.24 a 11.84,11.84 0 1 0 3.09,3.62 L 31.2,24 A 18.92,18.92 0 0 0 54.88,23.75 L 65.73,34 a 18.8,18.8 0 0 0 -3.28,15.33 l -11.33,4 a 11.86,11.86 0 1 0 1.38,5.55 c 0,-0.33 0,-0.66 0,-1 L 64,53.83 A 19,19 0 1 0 81,26.29 Z M 88.13,-8.55 A 7.13,7.13 0 1 1 81,-2.14 7.13,7.13 0 0 1 88.12,-8.55 Z M 11.88,-9.81 a 7.15,7.15 0 1 1 3.62,-1 7.13,7.13 0 0 1 -3.62,1 z m 7.13,48 A 7.14,7.14 0 1 1 18.64,35.93 7.13,7.13 0 0 1 19,38.17 Z M 42.87,23.25 a 14.16,14.16 0 0 1 -8.18,-2.6 14.35,14.35 0 0 1 -3.37,-3.35 14.14,14.14 0 0 1 -0.73,-15.49 14.34,14.34 0 0 1 3,-3.64 14.24,14.24 0 0 1 23.51,10.4 c 0,0.14 0,0.28 0,0.43 a 14.17,14.17 0 0 1 -2.44,8 14.36,14.36 0 0 1 -3.29,3.43 14.16,14.16 0 0 1 -8.5,2.82 z m -2.25,42.81 a 7.12,7.12 0 1 1 7.13,-7.13 c 0,0.24 0,0.47 0,0.7 a 7.13,7.13 0 0 1 -7.13,6.43 z M 81,59.55 A 14.25,14.25 0 1 1 95.25,45.3 14.26,14.26 0 0 1 81,59.55 Z" />
    <path
       inkscape:connector-curvature="0"
       id="path27"
       d="M 40.774202,22.964266 C 35.408257,22.004227 31.03041,18.233598 29.414425,13.180119 28.716877,10.99876 28.646962,7.310271 29.264622,5.276989 c 1.507075,-4.961162 5.521195,-8.861477 10.272737,-9.981496 4.905663,-1.156346 9.646916,0.204753 13.244274,3.802111 5.59289,5.59289 5.582938,14.281609 -0.02278,19.884266 -3.024943,3.023294 -8.036861,4.68871 -11.984656,3.982396 z"
       style="opacity:1;fill:#0000ff;fill-opacity:1;stroke:none;stroke-width:0.0529661;stroke-linejoin:round;stroke-miterlimit:4;stroke-dasharray:none;stroke-opacity:1" />
    <path
       inkscape:connector-curvature="0"
       id="path29"
       d="m 37.923729,65.311827 c -6.917655,-3.127726 -4.800211,-13.311759 2.755697,-13.253767 3.928059,0.03015 6.872615,2.994421 6.872615,6.918635 0,2.854252 -1.521968,5.170598 -4.199287,6.391064 -1.45309,0.662398 -3.895945,0.63723 -5.429025,-0.05593 z"
       style="opacity:1;fill:#008000;fill-opacity:1;stroke:none;stroke-width:0.0529661;stroke-linejoin:round;stroke-miterlimit:4;stroke-dasharray:none;stroke-opacity:1" />
    <path
       inkscape:connector-curvature="0"
       id="path31"
       d="m 78.177966,59.093199 c -5.646724,-1.21715 -9.850837,-5.544227 -11.030402,-11.35302 -1.345247,-6.624698 2.732893,-13.512891 9.348439,-15.790005 9.328103,-3.210794 19.207713,4.348911 18.54382,14.189408 -0.249916,3.70434 -2.026449,7.406439 -4.641355,9.672062 -1.71738,1.487983 -5.101707,3.099754 -7.188722,3.4236 -2.176072,0.337664 -2.901253,0.317192 -5.03178,-0.142045 z"
       style="opacity:1;fill:#ff0000;fill-opacity:1;stroke:none;stroke-width:0.0529661;stroke-linejoin:round;stroke-miterlimit:4;stroke-dasharray:none;stroke-opacity:1" />
    <path
       inkscape:connector-curvature="0"
       id="path33"
       d="M 85.650176,5.148102 C 84.466432,4.768795 82.518413,3.004858 81.814452,1.674845 81.002986,0.141718 80.997256,-2.94546 81.803082,-4.450212 c 0.745398,-1.391911 2.345759,-2.91443 3.622622,-3.446418 1.311053,-0.546232 3.98101,-0.546638 5.283377,-8.03e-4 2.379267,0.997175 4.418036,3.91466 4.418036,6.322224 0,2.599588 -1.7393,5.332832 -4.090147,6.427513 -1.461701,0.680646 -3.787234,0.808345 -5.386796,0.295798 z"
       style="opacity:1;fill:#ffff00;fill-opacity:1;stroke:none;stroke-width:0.0529661;stroke-linejoin:round;stroke-miterlimit:4;stroke-dasharray:none;stroke-opacity:1" />
    <path
       inkscape:connector-curvature="0"
       id="path35"
       d="m 9.6749086,-10.354499 c -1.886407,-0.672512 -3.0164568,-1.604364 -3.8884094,-3.206428 -1.4565356,-2.676136 -1.1499047,-5.673839 0.8152019,-7.969624 3.9326529,-4.594421 11.5573599,-2.174616 12.1807799,3.865736 0.515118,4.991011 -4.445195,8.972473 -9.1075724,7.310316 z"
       style="opacity:1;fill:#008000;fill-opacity:1;stroke:none;stroke-width:0.0529661;stroke-linejoin:round;stroke-miterlimit:4;stroke-dasharray:none;stroke-opacity:1" />
    <path
       inkscape:connector-curvature="0"
       id="path37"
       d="M 9.7192797,44.87814 C 6.602999,43.7581 4.5422642,40.585512 4.9096112,37.473454 c 0.2694904,-2.283045 1.5870311,-4.246141 3.5765721,-5.328985 4.9990317,-2.720813 10.8089697,1.083598 10.2958957,6.741865 -0.393303,4.33741 -5.067556,7.42776 -9.0627993,5.991806 z"
       style="opacity:1;fill:#ffff00;fill-opacity:1;stroke:none;stroke-width:0.0529661;stroke-linejoin:round;stroke-miterlimit:4;stroke-dasharray:none;stroke-opacity:1" />
    <path
       inkscape:connector-curvature="0"
       id="path39"
       d="m 37.735618,65.045113 c -1.297347,-0.642179 -2.880902,-2.300175 -3.412835,-3.573269 -0.204331,-0.489035 -0.371512,-1.654002 -0.371512,-2.588817 0,-4.306653 3.810315,-7.438548 7.965658,-6.547387 0.731433,0.156864 1.65165,0.453782 2.044928,0.659816 0.93067,0.487569 2.261596,1.911967 2.818209,3.016134 1.563052,3.100662 0.04504,7.50347 -3.114387,9.032925 -1.576228,0.763039 -4.389185,0.763322 -5.930061,6.09e-4 z"
       style="opacity:1;fill:#00ff00;fill-opacity:1;stroke:none;stroke-width:0.0529661;stroke-linejoin:round;stroke-miterlimit:4;stroke-dasharray:none;stroke-opacity:1" />
    <path
       inkscape:connector-curvature="0"
       id="path41"
       d="m 9.3446838,-10.59881 c -4.551096,-1.607466 -5.703756,-8.18296 -2.0038965,-11.43148 1.394584,-1.224461 2.6245644,-1.684452 4.5068207,-1.685474 3.796773,-0.0021 6.731861,2.970811 6.731861,6.818518 0,4.740105 -4.656026,7.915673 -9.2347852,6.298436 z"
       style="opacity:1;fill:#00ff00;fill-opacity:1;stroke:none;stroke-width:0.0529661;stroke-linejoin:round;stroke-miterlimit:4;stroke-dasharray:none;stroke-opacity:1" />
  </g>
</svg>
